<?xml version="1.0" encoding="UTF-8"?>
<svg version="1.1" xmlns="http://www.w3.org/2000/svg" width="1088" height="979">
<path d="M0 0 C0.81855469 0.74765625 1.63710938 1.4953125 2.48046875 2.265625 C3.24746094 2.95140625 4.01445312 3.6371875 4.8046875 4.34375 C29.54602125 27.66019019 44.09023065 66.10962383 45.58691406 99.65112305 C46.19533521 123.072923 44.39343709 147.26450784 28.69921875 165.9453125 C16.87946298 178.30611342 -1.01220784 183.0443321 -17.66455078 183.72094727 C-28.81135279 183.92176089 -38.58565195 181.90626847 -46.984375 174.0234375 C-49.88568974 170.70132139 -52.2359535 167.02976415 -54.51953125 163.265625 C-54.27240089 170.18527504 -52.51229642 174.39389656 -47.51953125 179.265625 C-44.33969181 181.61732596 -41.08322491 183.55444632 -37.51953125 185.265625 C-36.42382812 185.8121875 -35.328125 186.35875 -34.19921875 186.921875 C-27.65984038 189.30815557 -20.38119868 188.57690593 -13.51953125 188.453125 C-12.06251382 188.43805241 -10.60548132 188.42436855 -9.1484375 188.41210938 C-5.605152 188.37930403 -2.06243954 188.32766407 1.48046875 188.265625 C1.88909468 200.85444702 -2.16351963 212.2626622 -10.70703125 221.67578125 C-27.58822455 237.88064469 -49.90175761 239.68563885 -72.1796875 239.48046875 C-105.63110321 238.77266511 -149.63179692 231.15335933 -174.51953125 206.265625 C-204.89237922 201.14114203 -239.04626292 202.84154633 -269.1081543 208.88525391 C-275.08942471 209.82874073 -279.74627453 209.14898522 -284.76953125 205.703125 C-290.91916021 200.50333972 -293.515097 194.77010006 -295.84375 187.15234375 C-296.05848969 186.45627518 -296.27322937 185.7602066 -296.49447632 185.04304504 C-298.83577804 177.36444117 -300.9544273 169.62775799 -303.00439453 161.86694336 C-303.64198918 159.46271059 -304.2934832 157.06251609 -304.9453125 154.66210938 C-309.07510633 139.22537536 -312.10434492 123.8096227 -311.89453125 107.765625 C-311.88655518 106.62706055 -311.8785791 105.48849609 -311.87036133 104.31542969 C-311.70967929 94.67450761 -311.23948596 84.58440761 -308.51953125 75.265625 C-308.21756836 74.07461182 -307.91560547 72.88359863 -307.60449219 71.65649414 C-305.51953125 68.265625 -305.51953125 68.265625 -303.49031067 67.39712524 C-300.73301746 66.80294229 -298.01433611 66.43346965 -295.2109375 66.12109375 C-293.65704567 65.91000725 -293.65704567 65.91000725 -292.07176208 65.69465637 C-288.74500779 65.25049382 -285.41452963 64.85163616 -282.08203125 64.453125 C-279.90391646 64.16760069 -277.72617439 63.87921763 -275.54882812 63.58789062 C-239.61505447 58.85408691 -239.61505447 58.85408691 -225.39453125 59.078125 C-224.54761719 59.07876953 -223.70070313 59.07941406 -222.828125 59.08007812 C-216.80387581 59.12345272 -216.80387581 59.12345272 -214.51953125 60.265625 C-214.53000488 61.07378662 -214.54047852 61.88194824 -214.55126953 62.71459961 C-214.87071706 91.31324084 -214.90262746 120.40051014 -205.08203125 147.640625 C-204.80593018 148.40745605 -204.5298291 149.17428711 -204.24536133 149.96435547 C-202.30588075 155.00174954 -199.81034096 158.98700792 -196.51953125 163.265625 C-196.7983313 162.28843506 -196.7983313 162.28843506 -197.08276367 161.29150391 C-218.66021529 85.04895837 -218.66021529 85.04895837 -206.51953125 58.265625 C-203.99291474 54.9333272 -200.88831334 52.71251532 -197.51953125 50.265625 C-196.22894865 49.27802496 -194.94002301 48.28825758 -193.65234375 47.296875 C-175.00214741 33.10696153 -155.28892001 19.76959441 -134.73925781 8.48486328 C-133.24737466 7.66541052 -131.75977405 6.83811687 -130.27636719 6.00341797 C-90.18226282 -16.53330693 -38.95636428 -33.83506972 0 0 Z M-57.51953125 -2.734375 C-54.63888233 0.26042551 -51.60313181 2.83227507 -48.33203125 5.390625 C-22.76674403 26.27685435 -7.9164079 61.03697246 -3.51953125 93.265625 C-2.87735937 102.41657431 -3.39124959 110.51926956 -9.08203125 118.015625 C-15.96977039 125.36368334 -26.20703697 128.09626638 -35.9921875 128.6015625 C-37.52190548 128.63111031 -39.05203097 128.64367441 -40.58203125 128.640625 C-41.80660034 128.63929565 -41.80660034 128.63929565 -43.0559082 128.63793945 C-54.02808832 128.42838836 -64.42051684 125.47354767 -74.51953125 121.265625 C-74.65488281 121.88308594 -74.79023438 122.50054687 -74.9296875 123.13671875 C-77.49964848 133.2472838 -82.86397407 139.88395852 -91.58203125 145.52734375 C-112.19768843 157.72676854 -135.20647685 164.29317288 -158.51953125 169.265625 C-150.71104604 183.03013195 -134.07248714 189.16100993 -119.48046875 193.2421875 C-96.65621786 199.25676116 -70.96975253 201.42238556 -47.51953125 198.265625 C-49.77976273 196.42918692 -52.02848305 194.60643463 -54.421875 192.9453125 C-62.44445657 187.30948745 -68.29137093 179.96688484 -70.51953125 170.265625 C-71.71311875 160.22770778 -70.95779584 150.48231314 -66.51953125 141.265625 C-65.85953125 140.605625 -65.19953125 139.945625 -64.51953125 139.265625 C-63.95105469 139.91789063 -63.38257813 140.57015625 -62.796875 141.2421875 C-53.44533791 151.82706588 -42.50890815 162.24075984 -27.61035156 163.41625977 C-9.55608487 164.43663012 6.26882573 160.60866085 20.48046875 148.765625 C31.44840331 135.0557068 30.75945591 116.94373882 29.01171875 100.27734375 C26.81219945 82.62121848 22.04612919 65.54546749 15.54296875 49.015625 C14.95116821 47.49932495 14.95116821 47.49932495 14.34741211 45.95239258 C7.02255593 28.03220529 -4.88010134 14.4107661 -22.51953125 6.265625 C-33.82912253 1.58922509 -45.29593791 -1.72772614 -57.51953125 -2.734375 Z " fill="#000000" transform="translate(485.51953125,173.734375)"/>
<path d="M0 0 C0.69125977 0.19303711 1.38251953 0.38607422 2.09472656 0.58496094 C42.82322045 12.11618027 79.6831862 37.6014163 113 63 C113.5657373 63.42522949 114.13147461 63.85045898 114.71435547 64.28857422 C122.64566136 70.25749515 126.53881045 74.89573642 128 85 C131.74401422 116.82412087 123.30384518 148.54176944 115 179 C131.17741432 152.82417975 133.21690753 122.80279492 133.0625 92.6875 C133.05747105 90.96419402 133.05291063 89.24088661 133.04882812 87.51757812 C133.037942 83.34501591 133.02075565 79.17252432 133 75 C136.7402232 73.75325893 140.22868168 73.82168121 144.125 73.83203125 C144.92687744 73.83386917 145.72875488 73.83570709 146.55493164 73.83760071 C154.77268715 73.91758291 162.84813102 74.70319053 171 75.6875 C171.75360809 75.77647552 172.50721619 75.86545105 173.28366089 75.9571228 C177.24404349 76.4252513 181.20252309 76.90662658 185.15966797 77.40136719 C188.40951474 77.80707384 191.66074612 78.19476722 194.91455078 78.56738281 C198.88177068 79.02286341 202.84347563 79.51181551 206.8034668 80.02627563 C208.30082805 80.21599453 209.7995907 80.39498329 211.29956055 80.56283569 C215.6389905 81.05460772 219.83822 81.61238329 224 83 C226.328125 86.15234375 226.328125 86.15234375 227 90 C227.15525146 90.63139893 227.31050293 91.26279785 227.47045898 91.91333008 C229.89401252 101.92269268 230.30317737 112.2475008 230.375 122.5 C230.38877686 123.55348633 230.40255371 124.60697266 230.41674805 125.69238281 C230.31957677 142.74788497 226.22804063 159.14977789 221.86645508 175.53735352 C221.05582207 178.58762793 220.26235372 181.64201575 219.47070312 184.69726562 C218.95151907 186.67474152 218.43137147 188.65196475 217.91015625 190.62890625 C217.6777272 191.52388321 217.44529816 192.41886017 217.20582581 193.34095764 C214.25872103 204.3335186 210.60199885 216.43077118 200.25 222.625 C195.06399488 224.7719473 190.41413343 223.86024565 185 223 C182.44047089 222.62669109 179.87986884 222.2613751 177.3190918 221.89672852 C175.53310705 221.6396897 173.74802621 221.37625631 171.96411133 221.10522461 C159.48734586 219.24001357 147.16106662 218.81355146 134.56640625 218.81469727 C131.90087652 218.81252113 129.23576891 218.79433121 126.5703125 218.77539062 C118.03788215 218.74530605 109.56324187 218.9411495 101.06640625 219.76171875 C100.33819672 219.82269241 99.60998718 219.88366608 98.85971069 219.94648743 C92.5427751 220.65227395 88.93024073 223.40421053 84.21875 227.4296875 C55.31928437 251.64225262 5.55928258 256.906007 -30.57128906 253.77734375 C-46.33599978 251.93564163 -63.17157605 246.00979768 -73.4375 233.30078125 C-79.99919295 223.63868838 -83.12009629 214.57728201 -83 203 C-82.12899658 203.02618408 -81.25799316 203.05236816 -80.3605957 203.0793457 C-77.06338294 203.1656373 -73.76740503 203.22775408 -70.46948242 203.2746582 C-69.05457378 203.29948116 -67.63978879 203.33335255 -66.2253418 203.37719727 C-54.06851325 203.74401673 -43.59974855 202.03220974 -33.875 194.125 C-29.68121246 190.03894278 -27.0722387 186.3374278 -26.94140625 180.29296875 C-26.96074219 179.53628906 -26.98007812 178.77960938 -27 178 C-27.70962891 179.08667969 -27.70962891 179.08667969 -28.43359375 180.1953125 C-32.88101252 186.69738672 -36.94269818 191.40407845 -44 195 C-44.65097656 195.33773437 -45.30195312 195.67546875 -45.97265625 196.0234375 C-60.24845208 202.01982187 -79.19902124 197.42359703 -93.03466797 192.23730469 C-107.16386898 186.26404502 -115.4154491 175.66402616 -121.23828125 161.94677734 C-124.87000753 152.66492307 -126.13237011 142.83824845 -126.23828125 132.92578125 C-126.24812042 132.16834625 -126.25795959 131.41091125 -126.26809692 130.63052368 C-126.59516312 98.93509429 -126.59516312 98.93509429 -122 84 C-121.6299585 82.77555176 -121.6299585 82.77555176 -121.25244141 81.52636719 C-111.33297191 49.53318565 -93.88860236 19.161937 -63.609375 2.76171875 C-44.11283262 -7.19250183 -20.47631324 -6.03244083 0 0 Z M-47.20117188 16.65380859 C-66.99584824 23.28261119 -82.59845734 35.02949096 -91.97900391 53.69799805 C-105.36091687 81.41218939 -117.2970338 121.22997791 -108.25 151.8125 C-107.18334001 154.61896214 -107.18334001 154.61896214 -106 157 C-105.46375 158.11375 -104.9275 159.2275 -104.375 160.375 C-98.0501354 167.36563982 -89.6917511 171.63425808 -81 175 C-80.18402344 175.32097656 -79.36804688 175.64195312 -78.52734375 175.97265625 C-66.13935076 180.0892227 -50.74663784 179.7479737 -39 174 C-30.80629605 169.56623585 -22.13228502 162.84742935 -17 155 C-17 154.34 -17 153.68 -17 153 C-16.34 153 -15.68 153 -15 153 C-9.99149831 167.12397476 -7.32272234 179.86528164 -14 194 C-17.85016322 200.70673592 -23.04777463 205.18758429 -29.23046875 209.66796875 C-31.11560195 211.02248515 -31.11560195 211.02248515 -33 213 C-0.73610199 217.34321704 42.14881865 214.12629089 69 194 C69.62261719 193.54625 70.24523437 193.0925 70.88671875 192.625 C74.12409018 190.11662504 75.98798358 187.52102874 78 184 C77.24605957 183.81937012 76.49211914 183.63874023 75.71533203 183.45263672 C10.61206436 167.76402769 10.61206436 167.76402769 -2 148 C-3.83530107 144.39773353 -5.47085587 140.74166684 -7 137 C-7.65484375 137.18175781 -8.3096875 137.36351562 -8.984375 137.55078125 C-10.92996562 138.08664307 -12.87814563 138.61314795 -14.828125 139.1328125 C-16.80736519 139.67393482 -18.77850089 140.246896 -20.734375 140.8671875 C-34.10333888 144.83255814 -50.57660505 144.93187479 -63.328125 138.8984375 C-70.37048846 134.85559922 -74.1604024 129.62793866 -77 122 C-80.76648276 94.59883789 -66.48515803 62.03053172 -51 40.0625 C-43.07938773 29.71080872 -34.17685578 19.8780651 -23 13 C-28.93613646 10.03193177 -41.07258581 14.83344995 -47.20117188 16.65380859 Z " fill="#000000" transform="translate(686,159)"/>
<path d="M0 0 C0.75508347 -0.0065712 1.51016693 -0.0131424 2.28813171 -0.01991272 C4.77403882 -0.0395432 7.25988602 -0.05128083 9.74584961 -0.0612793 C10.5968115 -0.06535482 11.4477734 -0.06943035 12.32452202 -0.07362938 C16.8224653 -0.09443909 21.32037846 -0.10876686 25.81835938 -0.11816406 C30.46459298 -0.12926167 35.11035205 -0.16371419 39.75641727 -0.20333576 C43.33118086 -0.22944753 46.90582989 -0.23785067 50.48068047 -0.24144554 C52.19392567 -0.24631991 53.90716548 -0.2579581 55.62031746 -0.27648354 C58.01419345 -0.30077639 60.4068203 -0.29992947 62.80078125 -0.29296875 C63.50790253 -0.30577881 64.2150238 -0.31858887 64.943573 -0.33178711 C68.34141984 -0.29574241 70.04265074 -0.05471001 72.74412537 2.08137512 C75.10005648 5.18344332 75.47728113 6.96791387 75.58862305 10.80688477 C75.61825134 11.7683844 75.64787964 12.72988403 75.67840576 13.72052002 C75.70452942 14.76319031 75.73065308 15.8058606 75.75756836 16.88012695 C75.78546448 17.95067322 75.8133606 19.02121948 75.84210205 20.12420654 C75.89856956 22.39385351 75.95217843 24.6635731 76.00317383 26.93334961 C76.08503763 30.39924034 76.18864275 33.86406089 76.29272461 37.3293457 C76.34485816 39.53374122 76.3956818 41.73816818 76.44506836 43.94262695 C76.49639923 45.494487 76.49639923 45.494487 76.54876709 47.07769775 C76.64444391 52.55369532 76.51383408 56.47912867 73.33569336 61.17700195 C69.38490532 64.46932532 66.3371261 64.28266603 61.33569336 64.17700195 C61.34093018 64.91595703 61.34616699 65.65491211 61.3515625 66.41625977 C61.54309494 98.33186796 61.12746932 130.30626359 59.33569336 162.17700195 C60.02276367 162.28657227 60.70983398 162.39614258 61.41772461 162.5090332 C62.3187793 162.66758789 63.21983398 162.82614258 64.14819336 162.98950195 C65.48817383 163.21573242 65.48817383 163.21573242 66.85522461 163.4465332 C69.57216152 164.24663903 70.62790294 164.9520258 72.33569336 167.17700195 C73.32644914 170.1492693 73.41051655 171.83215623 73.28491211 174.91137695 C73.24696533 175.8674585 73.20901855 176.82354004 73.16992188 177.80859375 C73.12150146 178.83766846 73.07308105 179.86674316 73.02319336 180.92700195 C72.97541748 181.98508057 72.9276416 183.04315918 72.87841797 184.13330078 C72.51049297 191.72041981 72.01726939 199.29380716 71.39819336 206.86450195 C71.32366943 207.82517578 71.24914551 208.78584961 71.17236328 209.77563477 C70.26704063 220.09945708 70.26704063 220.09945708 66.37475586 224.28637695 C48.55006373 235.37525998 23.4059728 232.85558097 3.33569336 232.17700195 C3.33569336 231.51700195 3.33569336 230.85700195 3.33569336 230.17700195 C9.04161426 228.80414591 14.74843296 227.4351036 20.45605469 226.06933594 C22.39086599 225.60582252 24.32544357 225.14133219 26.25976562 224.67578125 C37.58029504 221.95193462 48.89259916 219.33739937 60.33569336 217.17700195 C60.42133545 215.9559375 60.50697754 214.73487305 60.59521484 213.47680664 C60.91406405 208.94415914 61.23757871 204.41185461 61.5625 199.87963867 C61.70244476 197.91846607 61.84112614 195.95720288 61.97851562 193.99584961 C62.17627767 191.17577716 62.37858903 188.35606227 62.58178711 185.53637695 C62.64224716 184.66019714 62.70270721 183.78401733 62.76499939 182.88128662 C62.82498611 182.06073792 62.88497284 181.24018921 62.94677734 180.39477539 C62.99785141 179.67529724 63.04892548 178.95581909 63.10154724 178.21453857 C63.34061908 176.13413841 63.78292181 174.19474665 64.33569336 172.17700195 C63.21420898 172.39356445 63.21420898 172.39356445 62.07006836 172.61450195 C61.08522461 172.80012695 60.10038086 172.98575195 59.08569336 173.17700195 C58.11116211 173.36262695 57.13663086 173.54825195 56.13256836 173.73950195 C53.33569336 174.17700195 53.33569336 174.17700195 49.33569336 174.17700195 C49.23264439 166.39107975 49.2808717 158.64115003 49.67770386 150.8644104 C50.28056728 138.85697095 50.45589992 126.86061428 50.54663086 114.84106445 C50.56094533 113.11826483 50.57537564 111.39546616 50.58992004 109.67266846 C50.64842923 102.56005784 50.70424549 95.44749854 50.73706055 88.3347168 C50.75792434 83.92378856 50.79309091 79.51317653 50.83781815 75.10242844 C50.85196838 73.43504897 50.86069838 71.76761425 50.86387253 70.10017776 C50.86874727 67.79422299 50.89179095 65.48913058 50.91918945 63.18334961 C50.93131973 61.22010239 50.93131973 61.22010239 50.94369507 59.2171936 C51.0730545 58.21393036 51.20241394 57.21066711 51.33569336 56.17700195 C54.33569336 54.17700195 54.33569336 54.17700195 65.33569336 54.17700195 C65.83069336 31.90200195 65.83069336 31.90200195 66.33569336 9.17700195 C62.87069336 9.32137695 59.40569336 9.46575195 55.83569336 9.61450195 C34.34561837 10.45526511 12.8371864 10.76368082 -8.66430664 11.17700195 C-8.66430664 25.69700195 -8.66430664 40.21700195 -8.66430664 55.17700195 C-4.04430664 55.17700195 0.57569336 55.17700195 5.33569336 55.17700195 C6.66206822 57.82975168 6.41526154 59.75916855 6.35742188 62.72827148 C6.33732559 63.88932404 6.31722931 65.05037659 6.29652405 66.24661255 C6.26948898 67.50496918 6.24245392 68.76332581 6.21459961 70.05981445 C6.19098862 71.34435516 6.16737762 72.62889587 6.14305115 73.95236206 C6.08019841 77.36865047 6.01113525 80.78478637 5.9407959 84.20092773 C5.87012312 87.68637137 5.80529985 91.17192318 5.73999023 94.6574707 C5.61096263 101.49743205 5.47537648 108.33725014 5.33569336 115.17700195 C4.67569336 115.17700195 4.01569336 115.17700195 3.33569336 115.17700195 C2.89253784 114.17008301 2.89253784 114.17008301 2.44042969 113.14282227 C-9.2259794 86.67240472 -21.46057294 60.49435554 -34.07348633 34.46313477 C-36.40651055 29.64384286 -38.7310069 24.82068503 -41.03930664 19.98950195 C-41.60246582 18.82245728 -41.60246582 18.82245728 -42.17700195 17.63183594 C-44.66430664 12.4078953 -44.66430664 12.4078953 -44.66430664 10.17700195 C-64.79430664 10.83700195 -84.92430664 11.49700195 -105.66430664 12.17700195 C-105.66430664 21.08700195 -105.66430664 29.99700195 -105.66430664 39.17700195 C-105.94257107 44.84663961 -106.24880317 50.51576719 -106.66430664 56.17700195 C-101.71430664 56.17700195 -96.76430664 56.17700195 -91.66430664 56.17700195 C-91.26043283 93.82701591 -92.66829763 131.36406554 -95.22680664 168.92700195 C-95.29074615 169.86860168 -95.35468567 170.81020142 -95.42056274 171.78033447 C-95.60271637 174.42852971 -95.79021726 177.07626985 -95.98071289 179.72387695 C-96.03483337 180.49651886 -96.08895386 181.26916077 -96.14471436 182.06521606 C-96.44842481 186.15115462 -96.91888776 190.14783979 -97.66430664 194.17700195 C-99.78867712 194.6796699 -101.9138239 195.17905806 -104.03930664 195.67700195 C-105.8143457 196.0946582 -105.8143457 196.0946582 -107.62524414 196.52075195 C-110.66430664 197.17700195 -110.66430664 197.17700195 -112.66430664 197.17700195 C-112.73423828 198.05396729 -112.80416992 198.93093262 -112.8762207 199.83447266 C-114.69016993 222.34114979 -116.96838248 244.75902294 -119.66430664 267.17700195 C-118.29556396 266.71028076 -118.29556396 266.71028076 -116.89916992 266.23413086 C-99.6602638 260.36825794 -82.39486227 254.65984017 -64.91430664 249.55200195 C-64.19905823 249.34263 -63.48380981 249.13325806 -62.74688721 248.9175415 C-55.75092787 246.87502445 -48.75492921 244.86784272 -41.66430664 243.17700195 C-41.66430664 246.47700195 -41.66430664 249.77700195 -41.66430664 253.17700195 C-56.23930715 258.18012023 -70.93185691 262.70797039 -85.69946289 267.09887695 C-91.11740858 268.71010796 -96.52284432 270.35442983 -101.91430664 272.05200195 C-103.10282227 272.42325195 -104.29133789 272.79450195 -105.51586914 273.17700195 C-107.55813438 273.82566188 -109.59509639 274.49135839 -111.62524414 275.17700195 C-119.87626814 277.8870157 -119.87626814 277.8870157 -124.66430664 276.17700195 C-127.60253884 274.11229824 -128.51009041 272.82474338 -129.34350586 269.32421875 C-130.02849007 263.68408974 -129.12207754 258.05752071 -128.48461914 252.4465332 C-128.3523996 251.21972336 -128.22018005 249.99291351 -128.08395386 248.72892761 C-127.66051736 244.81485196 -127.22530837 240.90219596 -126.78930664 236.98950195 C-126.36293167 233.09442418 -125.93899242 229.19909009 -125.51608276 225.30363464 C-125.2526323 222.88466334 -124.98677103 220.4659529 -124.7180481 218.04756165 C-124.00652109 211.59653264 -123.39608328 205.15364556 -122.94210815 198.67900085 C-122.55668076 195.20767742 -121.80006667 192.95348999 -119.66430664 190.17700195 C-115.76410691 188.08245025 -112.03511651 186.83924587 -107.66430664 186.17700195 C-106.48623403 182.29181534 -106.27191692 178.33182349 -105.98071289 174.3059082 C-105.92091751 173.50023407 -105.86112213 172.69455994 -105.79951477 171.86447144 C-105.60250882 169.15654491 -105.41365842 166.44814739 -105.22680664 163.73950195 C-105.16116516 162.80236359 -105.09552368 161.86522522 -105.02789307 160.89968872 C-103.57495857 139.82154927 -102.90815182 118.72288424 -102.31103516 97.60693359 C-102.25582954 95.69631638 -102.25582954 95.69631638 -102.19950867 93.74710083 C-102.13155011 91.36468899 -102.06677588 88.98218311 -102.00593567 86.59957886 C-101.81335118 79.75809212 -101.37387817 72.98460335 -100.66430664 66.17700195 C-102.21118164 66.26981445 -102.21118164 66.26981445 -103.78930664 66.36450195 C-107.97633991 66.16190357 -110.17344996 65.45011793 -113.66430664 63.17700195 C-115.62226487 60.1258229 -115.92022566 57.70806428 -115.93896484 54.12060547 C-115.94849686 53.1159877 -115.95802887 52.11136993 -115.96784973 51.0763092 C-115.96693832 49.99707687 -115.96602692 48.91784454 -115.96508789 47.8059082 C-115.97151558 46.134188 -115.97151558 46.134188 -115.97807312 44.42869568 C-115.98381417 42.07258788 -115.98431835 39.71646236 -115.97998047 37.36035156 C-115.97682164 33.75660955 -116.00027955 30.15368929 -116.02563477 26.55004883 C-116.02790789 24.26033632 -116.0286112 21.97062161 -116.02758789 19.6809082 C-116.03679764 18.6037001 -116.04600739 17.526492 -116.05549622 16.41664124 C-115.99559189 6.72458673 -115.99559189 6.72458673 -112.66430664 3.17700195 C-108.73987483 1.2154521 -105.47556017 0.91545886 -101.11743164 0.88647461 C-99.81257813 0.8737149 -98.50772461 0.8609552 -97.16333008 0.84780884 C-95.74699045 0.84475167 -94.33064882 0.84252365 -92.91430664 0.84106445 C-91.45369334 0.83463321 -89.99308133 0.8279046 -88.5324707 0.82089233 C-85.47612521 0.80893888 -82.4198926 0.80520968 -79.36352539 0.80639648 C-75.45268387 0.80659996 -71.54256669 0.77926045 -67.63189697 0.74485207 C-64.61723521 0.72258929 -61.60274824 0.71855868 -58.5880127 0.71961594 C-57.14633683 0.71726047 -55.70465611 0.70843988 -54.26306152 0.6929512 C-52.24586385 0.67330084 -50.22845259 0.68164932 -48.21118164 0.69116211 C-47.06488281 0.68831207 -45.91858398 0.68546204 -44.73754883 0.68252563 C-40.96320966 1.28980655 -39.36108452 2.51055198 -36.66430664 5.17700195 C-35.41764832 6.98675537 -35.41764832 6.98675537 -34.53613281 8.84399414 C-34.19615768 9.54441833 -33.85618256 10.24484253 -33.50590515 10.9664917 C-32.98683342 12.0838974 -32.98683342 12.0838974 -32.45727539 13.22387695 C-32.08701736 13.99507874 -31.71675934 14.76628052 -31.33528137 15.56085205 C-30.16233045 18.01081413 -29.00691199 20.46858362 -27.85180664 22.92700195 C-27.05672826 24.59551708 -26.2605162 26.26349248 -25.46313477 27.9309082 C-23.51701054 32.00680744 -21.58656137 36.08979476 -19.66430664 40.17700195 C-19.64972412 39.23381104 -19.6351416 38.29062012 -19.62011719 37.31884766 C-19.55891058 33.80541534 -19.48473156 30.29274749 -19.40185547 26.77978516 C-19.36868748 25.26198574 -19.34063032 23.74406539 -19.31787109 22.22607422 C-19.28417386 20.03862176 -19.2318546 17.85226931 -19.17602539 15.6652832 C-19.14984131 14.35084229 -19.12365723 13.03640137 -19.09667969 11.68212891 C-18.64188712 7.99525319 -17.90872078 6.10126075 -15.66430664 3.17700195 C-10.70249362 -0.1308734 -5.81961237 0.02219323 0 0 Z M-8.66430664 64.17700195 C-7.50845379 68.08911928 -6.30895702 71.05150605 -3.66430664 74.17700195 C-3.66430664 71.20700195 -3.66430664 68.23700195 -3.66430664 65.17700195 C-5.31430664 64.84700195 -6.96430664 64.51700195 -8.66430664 64.17700195 Z " fill="#000000" transform="translate(238.664306640625,467.822998046875)"/>
<path d="M0 0 C1.00765411 -0.00832352 2.01530823 -0.01664703 3.05349731 -0.02522278 C6.35699406 -0.04915957 9.66029316 -0.05807131 12.96386719 -0.06469727 C15.27073218 -0.07367027 17.5775966 -0.08279223 19.88446045 -0.09205627 C24.7058656 -0.10850026 29.52720164 -0.11623903 34.34863281 -0.11914062 C40.52824757 -0.1245447 46.70721499 -0.16232832 52.88664627 -0.20788479 C57.64441318 -0.23759765 62.40202232 -0.2448628 67.15987396 -0.24586678 C69.43888083 -0.2500742 71.71788795 -0.26252928 73.99680328 -0.28338432 C77.17804712 -0.31020077 80.35776387 -0.30550363 83.5390625 -0.29296875 C84.47942352 -0.30780304 85.41978455 -0.32263733 86.38864136 -0.33792114 C90.87244874 -0.28753982 92.88642056 -0.16019514 96.57147217 2.59385681 C99.37650844 6.51738066 99.61826859 9.43979842 99.85546875 14.16333008 C99.9051178 15.12467865 99.95476685 16.08602722 100.00592041 17.07650757 C100.05391785 18.10885529 100.10191528 19.141203 100.15136719 20.20483398 C100.22650543 21.80640854 100.22650543 21.80640854 100.30316162 23.44033813 C100.40642755 25.69798695 100.50713287 27.95575413 100.60546875 30.21362305 C100.75987699 33.66207363 100.93599529 37.10900595 101.11230469 40.55639648 C101.21001213 42.75164917 101.30640955 44.94696063 101.40136719 47.14233398 C101.45746155 48.17063324 101.51355591 49.1989325 101.5713501 50.25839233 C101.78118115 55.74007177 101.72504147 59.60228584 98.51074219 64.30639648 C95.87895422 66.11575071 94.74956559 66.30639648 91.51074219 66.30639648 C92.61384524 69.78590127 93.7184223 73.26493649 94.82324219 76.74389648 C95.13197266 77.7177832 95.44070313 78.69166992 95.75878906 79.69506836 C98.14884369 87.21745083 100.63065528 94.70464025 103.15917969 102.18139648 C106.46617827 111.98093002 109.62141955 121.79652703 112.46777344 131.73999023 C113.09327487 133.87887716 113.74585659 136.01051957 114.45166016 138.12426758 C116.36577853 143.8754476 118.07895911 149.68938549 119.82324219 155.49389648 C120.0232785 156.15925415 120.22331482 156.82461182 120.42941284 157.51013184 C122.92528486 165.82811951 125.36453755 174.15663847 127.57324219 182.55639648 C127.77667236 183.32878662 127.98010254 184.10117676 128.18969727 184.89697266 C129.51074219 190.02988766 129.51074219 190.02988766 129.51074219 192.30639648 C130.61482422 192.45334961 130.61482422 192.45334961 131.74121094 192.60327148 C141.71556987 194.13170694 141.71556987 194.13170694 145.51074219 198.30639648 C146.45292354 201.13294054 146.72015569 203.20023874 146.88378906 206.1472168 C146.96892761 207.62717133 146.96892761 207.62717133 147.05578613 209.13702393 C147.11310913 210.20869812 147.17043213 211.28037231 147.22949219 212.38452148 C147.32369446 214.06091705 147.32369446 214.06091705 147.4197998 215.7711792 C147.55279753 218.15178885 147.6838015 220.53251058 147.81298828 222.91333008 C148.00621441 226.4729847 148.20513578 230.03228076 148.40527344 233.59155273 C148.66477644 238.2310194 148.91253214 242.8708999 149.15136719 247.51147461 C149.38222538 251.99685688 149.64527328 256.47859394 149.93261719 260.96069336 C150.05278476 263.02903093 150.17259435 265.09738934 150.29199219 267.16577148 C150.39259949 268.57514984 150.39259949 268.57514984 150.49523926 270.01300049 C150.77851472 275.28612343 150.52846235 278.73987049 147.51074219 283.30639648 C144.89027708 285.4589214 143.65098909 285.31939084 140.24072266 285.00341797 C136.60015746 284.32310552 133.89677797 283.33067854 130.58105469 281.71655273 C129.46706299 281.18384766 128.35307129 280.65114258 127.20532227 280.10229492 C126.02736084 279.53027344 124.84939941 278.95825195 123.63574219 278.36889648 C112.9273454 273.24881348 102.1361782 268.59332819 91.06787109 264.29101562 C90.08608887 263.90937256 89.10430664 263.52772949 88.09277344 263.13452148 C87.22885986 262.80355469 86.36494629 262.47258789 85.47485352 262.1315918 C83.51074219 261.30639648 83.51074219 261.30639648 82.51074219 260.30639648 C82.43868707 258.62030683 82.42688151 256.93138989 82.44824219 255.24389648 C82.45726562 254.32479492 82.46628906 253.40569336 82.47558594 252.45874023 C82.49298828 251.39333008 82.49298828 251.39333008 82.51074219 250.30639648 C89.75850393 252.60114236 96.70853163 255.38517751 103.69824219 258.36889648 C104.82214355 258.84625244 105.94604492 259.3236084 107.10400391 259.81542969 C117.98925517 264.46381303 128.76883084 269.33691608 139.51074219 274.30639648 C138.75749559 250.62812045 137.64373493 226.96895818 136.51074219 203.30639648 C135.59550781 203.18522461 134.68027344 203.06405273 133.73730469 202.93920898 C131.95453125 202.6878418 131.95453125 202.6878418 130.13574219 202.43139648 C128.36070312 202.18776367 128.36070312 202.18776367 126.54980469 201.93920898 C123.51074219 201.30639648 123.51074219 201.30639648 121.51074219 199.30639648 C120.7861366 197.09533017 120.14746766 194.85588103 119.54980469 192.60717773 C119.16384755 191.17770452 118.7777741 189.7482627 118.39160156 188.31884766 C118.18817139 187.55623627 117.98474121 186.79362488 117.77514648 186.00790405 C107.73165548 148.48238827 95.47466982 111.63849694 83.31323242 74.75805664 C83.01029266 73.83679993 82.70735291 72.91554321 82.39523315 71.96636963 C81.80997385 70.20629058 81.21434675 68.44962201 80.60794067 66.69671631 C80.33231293 65.8967926 80.05668518 65.0968689 79.77270508 64.27270508 C79.40659874 63.22812637 79.40659874 63.22812637 79.03309631 62.16244507 C78.51074219 60.30639648 78.51074219 60.30639648 78.51074219 57.30639648 C82.80074219 57.30639648 87.09074219 57.30639648 91.51074219 57.30639648 C90.85074219 41.46639648 90.19074219 25.62639648 89.51074219 9.30639648 C84.85207031 9.37858398 80.19339844 9.45077148 75.39355469 9.52514648 C72.35840211 9.5710012 69.32324866 9.61669957 66.28808594 9.66186523 C61.51967038 9.73283703 56.75126574 9.80424355 51.98291016 9.87915039 C29.82374875 10.22642261 7.67262297 10.37584686 -14.48925781 10.30639648 C-14.32849258 11.06903809 -14.16772736 11.83167969 -14.00209045 12.61743164 C-13.42055008 15.66665568 -13.27568117 18.57888026 -13.17285156 21.68139648 C-13.13095703 22.9150293 -13.0890625 24.14866211 -13.04589844 25.41967773 C-13.00658203 26.70229492 -12.96726562 27.98491211 -12.92675781 29.30639648 C-12.88357422 30.55807617 -12.84039063 31.80975586 -12.79589844 33.09936523 C-12.53236571 41.17266939 -12.44955121 49.22893884 -12.48925781 57.30639648 C-8.19925781 57.30639648 -3.90925781 57.30639648 0.51074219 57.30639648 C-0.10726819 63.55758281 -1.4423914 69.33735142 -3.15722656 75.37280273 C-3.56448219 76.83034721 -3.56448219 76.83034721 -3.97996521 78.31733704 C-4.87253268 81.50301823 -5.77416617 84.68604208 -6.67675781 87.86889648 C-7.30294163 90.09105192 -7.92908032 92.31322006 -8.55517578 94.53540039 C-12.95914567 110.11822703 -17.49267627 125.66180995 -22.11425781 141.18139648 C-22.55383316 142.65891891 -22.55383316 142.65891891 -23.00228882 144.16629028 C-26.01284771 154.26831252 -29.07569381 164.33212898 -32.48925781 174.30639648 C-37.10925781 173.97639648 -41.72925781 173.64639648 -46.48925781 173.30639648 C-46.15925781 185.84639648 -45.82925781 198.38639648 -45.48925781 211.30639648 C-42.51925781 211.63639648 -39.54925781 211.96639648 -36.48925781 212.30639648 C-34.34706654 212.74400581 -32.21376871 213.22868219 -30.09472656 213.76733398 C-28.90838623 214.06889404 -27.7220459 214.3704541 -26.49975586 214.68115234 C-24.60737183 215.17627319 -24.60737183 215.17627319 -22.67675781 215.68139648 C-22.02260895 215.85091827 -21.36846008 216.02044006 -20.69448853 216.19509888 C-8.93354178 219.25126553 2.70640013 222.68241362 14.32324219 226.24389648 C15.5208165 226.61100739 15.5208165 226.61100739 16.74258423 226.98553467 C19.00620917 227.68156243 21.26860165 228.38139412 23.53027344 229.08374023 C24.20904541 229.29382217 24.88781738 229.50390411 25.5871582 229.72035217 C30.27137057 231.18671068 30.27137057 231.18671068 32.51074219 232.30639648 C32.18074219 231.31639648 31.85074219 230.32639648 31.51074219 229.30639648 C31.36913202 227.7580247 31.27609938 226.20494542 31.21362305 224.65136719 C31.15367409 223.24024406 31.15367409 223.24024406 31.09251404 221.8006134 C31.05392776 220.78802963 31.01534149 219.77544586 30.97558594 218.73217773 C30.9326088 217.69320847 30.88963165 216.6542392 30.84535217 215.58378601 C30.70889924 212.26230775 30.57850126 208.94062286 30.44824219 205.61889648 C30.35684371 203.36822923 30.26505176 201.11757791 30.17285156 198.86694336 C29.94758062 193.34693575 29.72774011 187.82673525 29.51074219 182.30639648 C25.22074219 181.97639648 20.93074219 181.64639648 16.51074219 181.30639648 C15.21963487 177.43307454 16.04016306 175.56462092 17.19824219 171.68139648 C17.53210938 170.51350586 17.86597656 169.34561523 18.20996094 168.14233398 C19.51074219 165.30639648 19.51074219 165.30639648 21.34585571 164.60954285 C25.00215102 164.09755636 28.58834941 164.74873959 32.22167969 165.23217773 C33.49031357 165.39365547 33.49031357 165.39365547 34.78457642 165.55839539 C36.57202056 165.78776115 38.35899332 166.02082648 40.14550781 166.25732422 C42.86761261 166.6165043 45.59125777 166.96133563 48.31542969 167.30444336 C50.05512439 167.52949559 51.79471168 167.75538001 53.53417969 167.98217773 C54.34374115 168.08436111 55.15330261 168.18654449 55.98739624 168.29182434 C60.33608937 168.87649117 64.4744973 169.49512191 68.51074219 171.30639648 C69.80827782 174.0795017 70.63748608 176.33031021 71.38574219 179.24389648 C71.59714844 179.97286133 71.80855469 180.70182617 72.02636719 181.45288086 C72.8805971 184.47874072 73.51074219 187.15058596 73.51074219 190.30639648 C71.92706471 190.16434908 70.34380901 190.01759496 68.76074219 189.86889648 C67.43816406 189.74708008 67.43816406 189.74708008 66.08886719 189.62280273 C63.81723767 189.34401184 61.71222395 188.91849071 59.51074219 188.30639648 C59.74083984 189.98475586 59.74083984 189.98475586 59.97558594 191.69702148 C60.5703607 196.47619928 60.85268156 201.24708792 61.07324219 206.05639648 C61.11570068 206.95511475 61.15815918 207.85383301 61.2019043 208.77978516 C61.61341554 218.28925518 61.60273442 227.79031153 61.51074219 237.30639648 C58.54074219 237.30639648 55.57074219 237.30639648 52.51074219 237.30639648 C51.05915154 223.2052302 50.4406485 209.04055111 50.26074219 194.86889648 C50.23939209 193.98733887 50.21804199 193.10578125 50.19604492 192.19750977 C50.17046955 187.41259033 50.34637012 184.16969539 53.51074219 180.30639648 C54.17074219 179.97639648 54.83074219 179.64639648 55.51074219 179.30639648 C53.44901606 178.96830962 51.38632189 178.63612287 49.32324219 178.30639648 C48.1746875 178.12077148 47.02613281 177.93514648 45.84277344 177.74389648 C43.00658826 177.37150171 40.36354655 177.22043628 37.51074219 177.30639648 C37.83227264 177.88111191 38.1538031 178.45582733 38.4850769 179.04795837 C39.53889402 181.3683847 39.80989797 182.91651296 39.92138672 185.44140625 C39.98122238 186.64900352 39.98122238 186.64900352 40.04226685 187.8809967 C40.07569183 188.74454269 40.10911682 189.60808868 40.14355469 190.49780273 C40.18511688 191.39828842 40.22667908 192.29877411 40.26950073 193.22654724 C40.3559125 195.13359289 40.4380108 197.04083817 40.51611328 198.94824219 C40.63432797 201.83436933 40.76463024 204.71973691 40.89746094 207.60522461 C42.02724186 232.75689746 42.02724186 232.75689746 40.51074219 237.30639648 C20.46223078 239.30519067 3.5858972 234.25800092 -15.35350037 228.43983459 C-20.47816373 226.87536846 -25.61458831 225.45728104 -30.82128906 224.19311523 C-32.06547607 223.88962158 -33.30966309 223.58612793 -34.59155273 223.2734375 C-36.8687667 222.72910934 -39.14876293 222.1962367 -41.43188477 221.67724609 C-47.02144687 220.31752563 -51.10921375 219.31228452 -54.48925781 214.30639648 C-55.44344487 209.20699 -55.72670495 204.13007913 -55.91113281 198.95874023 C-55.93902893 198.18381729 -55.96692505 197.40889435 -55.9956665 196.61048889 C-56.05171148 194.98275555 -56.10536702 193.35493833 -56.15673828 191.72705078 C-56.21181914 190.06957329 -56.27401233 188.4123171 -56.34326172 186.75537109 C-56.44397298 184.34426721 -56.52362239 181.93326477 -56.59863281 179.52124023 C-56.63285339 178.78671127 -56.66707397 178.05218231 -56.70233154 177.2953949 C-56.81896105 172.51430953 -56.04572263 169.35106161 -53.48925781 165.30639648 C-50.28998997 163.236282 -47.51352362 163.23384435 -43.80957031 163.26733398 C-43.0002002 163.27297363 -42.19083008 163.27861328 -41.35693359 163.28442383 C-40.74060059 163.2916748 -40.12426758 163.29892578 -39.48925781 163.30639648 C-33.41905655 143.04103601 -27.42952592 122.75345582 -21.55175781 102.43139648 C-21.27739899 101.484711 -21.00304016 100.53802551 -20.72036743 99.56265259 C-17.51837672 88.50846671 -14.39285641 77.44310554 -11.48925781 66.30639648 C-12.60558594 66.1787793 -13.72191406 66.05116211 -14.87207031 65.91967773 C-18.48925781 65.30639648 -18.48925781 65.30639648 -20.36425781 63.49389648 C-22.4222163 59.49231053 -22.65129122 55.77557958 -22.80566406 51.31030273 C-22.84796143 50.12114258 -22.89025879 48.93198242 -22.93383789 47.70678711 C-23.09407434 42.4916382 -23.25250929 37.27660681 -23.38964844 32.06079102 C-23.45236291 29.69700881 -23.52058637 27.33336005 -23.59667969 24.9699707 C-23.68659579 22.0821039 -23.74931088 19.19515289 -23.80175781 16.30639648 C-23.83148682 15.46020752 -23.86121582 14.61401855 -23.8918457 13.7421875 C-23.92822263 10.01987058 -23.70790225 7.74720242 -22.03222656 4.36889648 C-16.02394893 -0.50417662 -7.40365865 0.00527856 0 0 Z " fill="#000000" transform="translate(828.4892578125,462.693603515625)"/>
<path d="M0 0 C12.11615157 -0.28807201 24.2307676 -0.50161662 36.34985733 -0.61700058 C42.20376727 -0.67431362 48.05502121 -0.75736668 53.90759277 -0.89709473 C59.66893809 -1.033832 65.42785048 -1.10598621 71.19071579 -1.13379288 C73.35736573 -1.15509299 75.52392934 -1.19876489 77.68962479 -1.2665062 C96.17263299 -1.8200174 96.17263299 -1.8200174 103.19020653 4.67050743 C105.27868801 6.88202404 107.2016876 9.16107092 109.02862167 11.592556 C110.57789088 13.65175642 112.29516285 15.54157086 114.02770996 17.44714355 C114.81226563 18.36922607 114.81226563 18.36922607 115.6126709 19.30993652 C119.16716904 23.42607614 122.99561474 27.30492475 126.76208496 31.22644043 C128.60491605 33.16934329 130.39784017 35.15060934 132.19177246 37.1385498 C132.69934082 37.63081055 133.20690918 38.12307129 133.7298584 38.63024902 C138.54649126 43.95689865 138.01390039 50.78064062 138.13977051 57.57446289 C138.19690976 60.39185722 138.29466893 63.20622591 138.39685059 66.02233887 C138.58797079 71.47368975 138.73298811 76.92508519 138.85925293 82.3782959 C138.91470661 84.65320924 138.97698764 86.92796547 139.04577637 89.20251465 C139.14603943 92.5273519 139.22587531 95.85212666 139.30114746 99.1776123 C139.35247833 100.69640488 139.35247833 100.69640488 139.40484619 102.24588013 C139.51637869 108.46444384 139.04156292 113.02045847 134.65661621 117.8182373 C130.41399468 121.1385498 130.41399468 121.1385498 128.19177246 121.1385498 C128.19177246 121.7985498 128.19177246 122.4585498 128.19177246 123.1385498 C128.77571777 123.40796387 129.35966309 123.67737793 129.96130371 123.95495605 C132.19761872 125.14165211 133.95606499 126.43652586 135.87927246 128.0760498 C136.48126465 128.58007324 137.08325684 129.08409668 137.70349121 129.60339355 C140.42851955 132.41424956 140.35773131 135.52581845 140.50817871 139.24401855 C140.57102051 140.71838379 140.57102051 140.71838379 140.63513184 142.22253418 C140.67444824 143.24669434 140.71376465 144.27085449 140.75427246 145.3260498 C140.79745605 146.36181152 140.84063965 147.39757324 140.88513184 148.46472168 C140.99121612 151.0225317 141.09327392 153.58043826 141.19177246 156.1385498 C142.22999146 156.32248291 142.22999146 156.32248291 143.28918457 156.51013184 C144.64668823 156.76319092 144.64668823 156.76319092 146.03161621 157.0213623 C147.37921021 157.26717041 147.37921021 157.26717041 148.75402832 157.51794434 C151.91095078 158.32163957 153.37131154 159.44743366 155.19177246 162.1385498 C156.53695273 166.02838217 156.47138951 170.12002024 156.61364746 174.1932373 C156.64154358 174.97240509 156.6694397 175.75157288 156.69818115 176.55435181 C156.75446152 178.20000706 156.80809247 179.84575477 156.85925293 181.49157715 C156.94127543 183.99835935 157.04490176 186.50368608 157.14880371 189.00964355 C157.20092961 190.61246497 157.25175345 192.21532937 157.30114746 193.8182373 C157.35247833 194.93414749 157.35247833 194.93414749 157.40484619 196.07260132 C157.52044677 200.87727584 156.87575178 204.12761713 154.19177246 208.1385498 C151.32628115 210.21752878 149.28469927 210.34423515 145.83239746 209.90808105 C144.94874512 209.79802734 144.06509277 209.68797363 143.15466309 209.57458496 C138.71561097 208.92130982 134.28784117 208.20992527 129.8614502 207.47595215 C114.18733314 204.87710446 98.5221508 202.98664428 82.69665527 201.57092285 C81.15205653 201.42421945 79.60746007 201.27749209 78.06286621 201.1307373 C77.02255501 201.04652779 77.02255501 201.04652779 75.96122742 200.96061707 C71.11403425 200.4899499 67.47269191 199.35957074 63.19177246 197.1385498 C58.69957454 190.40025292 59.97251048 181.38734827 59.94177246 173.5760498 C59.92114746 172.26185059 59.90052246 170.94765137 59.87927246 169.59362793 C59.87153809 167.69580566 59.87153809 167.69580566 59.86364746 165.75964355 C59.85430176 164.60907471 59.84495605 163.45850586 59.83532715 162.27307129 C60.23164105 158.78795196 61.09784565 156.92603664 63.19177246 154.1385498 C65.45349121 152.99401855 65.45349121 152.99401855 67.87927246 152.3260498 C68.68751465 152.09272949 69.49575684 151.85940918 70.32849121 151.61901855 C70.94337402 151.46046387 71.55825684 151.30190918 72.19177246 151.1385498 C68.36458875 150.26349804 64.71826338 149.95222486 60.79724121 149.82214355 C59.59519043 149.78024902 58.39313965 149.73835449 57.15466309 149.69519043 C55.90878418 149.65587402 54.66290527 149.61655762 53.37927246 149.5760498 C51.4814502 149.51127441 51.4814502 149.51127441 49.54528809 149.44519043 C46.42755357 149.33930511 43.30974211 149.23722575 40.19177246 149.1385498 C40.19177246 149.7985498 40.19177246 150.4585498 40.19177246 151.1385498 C41.40864746 151.0766748 42.62552246 151.0147998 43.87927246 150.9510498 C47.78918942 150.9510498 50.06446558 151.65510022 53.19177246 154.1385498 C55.55705007 157.68646622 55.58655281 160.3642102 55.71130371 164.4744873 C55.73778488 165.19085358 55.76426605 165.90721985 55.79154968 166.64529419 C55.84418183 168.15981023 55.89177456 169.67450861 55.93469238 171.18933105 C56.00383669 173.49899364 56.09983883 175.80650753 56.19763184 178.1151123 C56.24550127 179.58901812 56.29177732 181.06297671 56.33630371 182.5369873 C56.36738724 183.22360443 56.39847076 183.91022156 56.43049622 184.61764526 C56.52379102 189.01874829 55.8367454 191.61964488 53.19177246 195.1385498 C50.26889338 198.06142888 47.30472037 198.13429555 43.23651123 198.14248657 C40.98142487 198.06334413 38.73298905 197.93819931 36.48083496 197.79870605 C34.75484561 197.70416003 33.02885263 197.60968013 31.30285645 197.51525879 C29.95814774 197.43802078 29.95814774 197.43802078 28.58627319 197.35922241 C15.93261569 196.6365427 3.30714923 195.95188175 -9.37072754 196.0760498 C-15.93997536 196.1290368 -22.49335495 196.17286422 -29.05822754 195.8885498 C-30.28025879 195.84214355 -31.50229004 195.7957373 -32.76135254 195.7479248 C-36.37241327 195.02571266 -37.59137292 194.03101726 -39.80822754 191.1385498 C-41.58053042 185.82164117 -40.82532444 180.07414042 -40.67614746 174.51501465 C-40.62110311 172.27880761 -40.59242119 170.04320137 -40.56408691 167.80651855 C-40.52861515 166.37809153 -40.49155723 164.94970284 -40.45275879 163.5213623 C-40.41179077 161.57834229 -40.41179077 161.57834229 -40.36999512 159.59606934 C-39.72364671 155.6179789 -38.66555908 153.93447877 -35.80822754 151.1385498 C-33.0574387 150.22162019 -31.44873841 150.02968897 -28.62072754 150.0760498 C-27.36260254 150.0966748 -26.10447754 150.1172998 -24.80822754 150.1385498 C-24.83852051 149.26907715 -24.86881348 148.39960449 -24.90002441 147.50378418 C-25.82432658 120.0448998 -25.92238183 92.61109824 -25.80822754 65.1385498 C-26.42383545 65.15305176 -27.03944336 65.16755371 -27.67370605 65.18249512 C-28.48251221 65.19377441 -29.29131836 65.20505371 -30.12463379 65.2166748 C-31.32648315 65.23842773 -31.32648315 65.23842773 -32.5526123 65.26062012 C-35.68514459 65.09109245 -37.43344336 64.1535182 -39.80822754 62.1385498 C-41.67723111 59.09832153 -42.08299409 56.71604143 -42.17468262 53.1739502 C-42.20423538 52.18935318 -42.23378815 51.20475616 -42.26423645 50.19032288 C-42.28519882 49.13296432 -42.30616119 48.07560577 -42.32775879 46.98620605 C-42.35423996 45.89392197 -42.38072113 44.80163788 -42.40800476 43.67625427 C-42.46065773 41.36732536 -42.50824593 39.0582762 -42.55114746 36.74914551 C-42.62040595 33.21744855 -42.71636569 29.68713783 -42.81408691 26.15612793 C-42.86194209 23.9120215 -42.90821868 21.66788073 -42.95275879 19.42370605 C-42.99938408 17.84070457 -42.99938408 17.84070457 -43.04695129 16.22572327 C-43.17590715 6.99019559 -43.17590715 6.99019559 -39.80822754 3.1385498 C-36.51477462 0.94291453 -35.42493605 0.85997926 -31.58410645 0.75524902 C-30.46805023 0.72093781 -29.35199402 0.68662659 -28.20211792 0.65127563 C-26.95064972 0.62387299 -25.69918152 0.59647034 -24.40979004 0.5682373 C-23.05281518 0.53324111 -21.69585136 0.49781448 -20.33889771 0.46200562 C-16.39349209 0.36200094 -12.44784724 0.27827505 -8.50202942 0.19639587 C-5.66789598 0.13553636 -2.83396235 0.06834824 0 0 Z M-32.80822754 10.1385498 C-32.83336341 14.4394902 -32.85128848 18.74038917 -32.86315918 23.04138184 C-32.86811941 24.49776964 -32.87488969 25.95415266 -32.88366699 27.41052246 C-32.94022434 37.0518867 -32.61062252 46.52244617 -31.80822754 56.1385498 C-26.85822754 56.1385498 -21.90822754 56.1385498 -16.80822754 56.1385498 C-16.8198291 58.29515137 -16.83143066 60.45175293 -16.84338379 62.67370605 C-16.93252559 85.1667624 -16.68231913 107.64924188 -16.30822754 130.1385498 C-16.29029081 131.21720243 -16.29029081 131.21720243 -16.27199173 132.31764603 C-16.12282365 141.25804346 -15.96763209 150.19832871 -15.80822754 159.1385498 C-20.75822754 159.1385498 -25.70822754 159.1385498 -30.80822754 159.1385498 C-30.80822754 168.0485498 -30.80822754 176.9585498 -30.80822754 186.1385498 C-26.44797363 186.22942871 -26.44797363 186.22942871 -21.99963379 186.32214355 C-19.12323316 186.38429488 -16.24685822 186.4475308 -13.3704834 186.51086426 C-11.40110655 186.55365938 -9.4317056 186.59536151 -7.46228027 186.63586426 C2.90732732 186.84986126 13.2507946 187.13873109 23.60202026 187.80477905 C28.66120028 188.12606942 33.68673943 188.26401091 38.75427246 188.2010498 C42.43583496 188.1701123 42.43583496 188.1701123 46.19177246 188.1385498 C46.19177246 178.8985498 46.19177246 169.6585498 46.19177246 160.1385498 C41.24177246 160.1385498 36.29177246 160.1385498 31.19177246 160.1385498 C31.22432454 156.98099772 31.25687663 153.82344564 31.28942871 150.66589355 C31.19027573 147.08448782 30.72481631 143.67803473 30.19177246 140.1385498 C35.90290788 140.23245658 41.61363789 140.33863221 47.32434082 140.45593262 C49.26503335 140.49409639 51.20579357 140.52897076 53.14660645 140.5604248 C55.94445914 140.60635006 58.74185084 140.66429809 61.53942871 140.7244873 C62.40012466 140.73603851 63.26082062 140.74758972 64.14759827 140.75949097 C70.41121158 140.91120705 75.65396017 141.53862467 81.06677246 144.9510498 C84.47047986 150.0566109 84.00786999 155.06976832 84.19177246 161.1385498 C79.24177246 161.1385498 74.29177246 161.1385498 69.19177246 161.1385498 C69.68677246 175.4935498 69.68677246 175.4935498 70.19177246 190.1385498 C79.32713273 191.71847854 79.32713273 191.71847854 88.44177246 192.7791748 C90.07142944 192.92649048 90.07142944 192.92649048 91.73400879 193.07678223 C92.8750708 193.17966553 94.01613281 193.28254883 95.19177246 193.3885498 C112.66996933 195.06301738 129.91112359 198.08169483 147.19177246 201.1385498 C147.22127096 197.36773344 147.2387361 193.5969475 147.25427246 189.8260498 C147.26265137 188.77353027 147.27103027 187.72101074 147.27966309 186.63659668 C147.30089977 179.73467325 146.91526751 173.00320755 146.19177246 166.1385498 C141.24177246 165.8085498 136.29177246 165.4785498 131.19177246 165.1385498 C131.21239746 162.7872998 131.23302246 160.4360498 131.25427246 158.0135498 C131.24140954 156.53824835 131.22514647 155.06296714 131.20349121 153.58776855 C131.17163631 150.80076486 131.26305175 148.1354746 131.46130371 145.34558105 C131.69460658 138.98134793 131.69460658 138.98134793 128.81872559 133.4822998 C124.31884765 129.19375634 119.11984195 125.11457297 113.19177246 123.1385498 C113.19177246 122.4785498 113.19177246 121.8185498 113.19177246 121.1385498 C115.50927837 119.95729679 117.77995636 118.90845714 120.20739746 117.9588623 C124.16655736 115.88365047 126.99901889 114.1083055 129.19177246 110.1385498 C130.88331351 102.37581877 129.87909282 94.19966803 129.37976074 86.34216309 C129.13714506 81.87964057 129.23498909 77.44390108 129.34411621 72.97839355 C130.4597298 55.92087169 130.4597298 55.92087169 124.43811035 40.74890137 C122.37270339 38.78086128 120.21252201 37.06572294 117.88220215 35.42224121 C114.87483014 33.13848008 112.49718652 30.269951 110.00427246 27.4510498 C109.01561887 26.37607624 108.02477709 25.3031105 107.03161621 24.2322998 C103.63272589 20.53910828 100.27839505 16.80691318 96.93395996 13.06433105 C94.42188962 9.97913741 94.42188962 9.97913741 90.80470276 8.89131165 C89.79685226 8.89273666 88.78900177 8.89416168 87.75061035 8.89562988 C86.5977655 8.89259354 85.44492065 8.88955719 84.25714111 8.88642883 C82.98904602 8.89357407 81.72095093 8.9007193 80.41442871 8.90808105 C79.07501248 8.90893918 77.73559555 8.90901829 76.3961792 8.90837097 C72.76961587 8.90953111 69.14321459 8.92395844 65.51669693 8.9413147 C63.26128103 8.95101965 61.00588982 8.95687554 58.75045776 8.96130371 C28.22546909 9.02124467 -2.29028555 9.49094317 -32.80822754 10.1385498 Z " fill="#000000" transform="translate(596.8082275390625,464.8614501953125)"/>
<path d="M0 0 C0.73234265 -0.01391501 1.46468531 -0.02783003 2.21922016 -0.04216671 C4.16272801 -0.07938895 6.10595673 -0.13048258 8.04911804 -0.18275452 C11.62322619 0.14861516 13.43961495 0.96128187 16.27865601 3.1166687 C18.48085081 6.9794939 18.57840156 10.61869533 18.69271851 15.0072937 C18.71226593 15.66523422 18.73181335 16.32317474 18.75195312 17.00105286 C18.81225721 19.12279782 18.85878007 21.24454558 18.90365601 23.3666687 C18.93941765 24.82151186 18.97555121 26.27634592 19.01205444 27.73117065 C19.0811601 30.57847975 19.1433334 33.42581525 19.19955444 36.27340698 C19.26514467 39.46020117 19.34937595 42.64545941 19.44271851 45.83151245 C19.47325097 47.32236042 19.50211852 48.81324427 19.52865601 50.3041687 C19.56732788 52.15075073 19.56732788 52.15075073 19.60678101 54.03463745 C19.13436025 58.47201809 17.38495163 61.01037308 14.27865601 64.1166687 C11.65365601 64.2416687 11.65365601 64.2416687 9.27865601 64.1166687 C22.89633428 104.12029417 22.89633428 104.12029417 38.35043335 143.42623901 C40.27865601 147.93143214 40.27865601 147.93143214 40.27865601 150.1166687 C41.13137085 149.95618042 41.13137085 149.95618042 42.00131226 149.79244995 C47.79988478 148.89217074 51.15398876 149.18828742 56.27865601 152.1166687 C59.56426653 157.04508449 58.6114431 162.91429938 58.59432983 168.68527222 C58.59118177 170.91095486 58.6145905 173.13529215 58.63998413 175.36080933 C58.64225857 176.78593787 58.64295995 178.21106996 58.64193726 179.63619995 C58.64491821 180.92630981 58.64789917 182.21641968 58.65097046 183.54562378 C58.15048865 188.34598272 56.69517691 191.7001478 53.27865601 195.1166687 C50.36514203 196.07076813 47.4917461 196.33774715 44.44442749 196.56564331 C43.48499741 196.6391954 42.52556732 196.7127475 41.5370636 196.78852844 C40.50175003 196.86458817 39.46643646 196.94064789 38.39974976 197.01901245 C37.31847305 197.10163834 36.23719635 197.18426422 35.12315369 197.26939392 C31.6543923 197.53423946 28.18531972 197.7946501 24.71615601 198.0541687 C4.9823333 199.51940374 4.9823333 199.51940374 -14.70707703 201.47749329 C-30.62962819 203.26506169 -30.62962819 203.26506169 -35.90884399 200.3666687 C-39.31352149 196.1401725 -38.81501982 191.80047118 -38.63540649 186.5776062 C-38.61416718 185.85553986 -38.59292786 185.13347351 -38.57104492 184.38952637 C-38.52490896 182.86815027 -38.47599154 181.34685628 -38.42446899 179.82565308 C-38.34639327 177.49314092 -38.27934346 175.16049311 -38.21353149 172.8276062 C-38.16731377 171.34841885 -38.12046071 169.86925119 -38.07290649 168.3901062 C-38.05305695 167.69114227 -38.0332074 166.99217834 -38.01275635 166.27203369 C-37.836533 161.34704671 -37.836533 161.34704671 -36.72134399 159.1166687 C-40.68134399 159.1166687 -44.64134399 159.1166687 -48.72134399 159.1166687 C-48.55151001 160.11754517 -48.38167603 161.11842163 -48.20669556 162.14962769 C-47.47556948 168.12551683 -47.9563137 174.00113745 -48.33560181 179.98703003 C-48.47115721 182.17615225 -48.5850375 184.36572717 -48.69790649 186.55612183 C-48.78252459 187.96310284 -48.86841906 189.37000779 -48.95571899 190.77682495 C-49.03016235 192.04147583 -49.10460571 193.30612671 -49.18130493 194.60910034 C-49.77681667 198.47696525 -50.48941871 200.89364171 -52.72134399 204.1166687 C-58.32256014 207.39927581 -64.36113005 208.07345809 -70.71743774 208.9838562 C-71.78261124 209.14532135 -72.84778473 209.3067865 -73.94523621 209.47314453 C-77.34850224 209.98825843 -80.75340786 210.49111819 -84.15884399 210.9916687 C-88.59632059 211.64746618 -93.03251944 212.31097092 -97.46743774 212.9838562 C-98.56220428 213.14891663 -99.65697083 213.31397705 -100.78491211 213.48403931 C-109.57793097 214.84871752 -118.26110288 216.60308468 -126.92384338 218.63641357 C-132.24692867 219.83351479 -136.39241121 220.47328335 -141.72134399 219.1166687 C-144.0394802 217.22555759 -145.39048415 215.7783884 -146.72134399 213.1166687 C-146.68172113 210.4345059 -146.57381347 207.79201938 -146.40884399 205.1166687 C-146.35961792 204.29593872 -146.31039185 203.47520874 -146.25967407 202.62960815 C-146.14715846 200.80429886 -146.03132155 198.97919228 -145.91275024 197.15426636 C-145.77869906 195.02688768 -145.65452789 192.89887405 -145.53775024 190.77047729 C-145.34611073 187.28038926 -145.12968463 183.79251936 -144.90884399 180.3041687 C-144.85107788 179.18977417 -144.79331177 178.07537964 -144.73379517 176.92721558 C-144.31975472 170.88102757 -143.97935643 166.60872082 -139.72134399 162.1166687 C-137.53775024 161.0932312 -137.53775024 161.0932312 -135.28384399 160.7416687 C-134.50267212 160.61276245 -133.72150024 160.4838562 -132.91665649 160.3510437 C-130.49806924 160.09283154 -128.15091343 159.95992229 -125.72134399 160.1166687 C-125.64142212 159.34580933 -125.56150024 158.57494995 -125.47915649 157.7807312 C-124.44119627 152.76214004 -122.52433006 148.22864108 -120.59634399 143.4916687 C-113.07084881 124.94291297 -106.95191981 105.89907243 -100.78384399 86.8666687 C-100.09329467 84.74160179 -99.40254045 82.61660144 -98.71157837 80.4916687 C-97.04581562 75.36742997 -95.38253993 70.24238963 -93.72134399 65.1166687 C-94.49993774 64.99162964 -95.27853149 64.86659058 -96.08071899 64.73776245 C-99.36220434 63.9659338 -100.56847248 62.65398155 -102.72134399 60.1166687 C-103.94696099 57.66543471 -103.86790807 56.0283044 -103.89834595 53.287323 C-103.9175988 51.78016975 -103.9175988 51.78016975 -103.9372406 50.24256897 C-103.94462753 49.15301407 -103.95201447 48.06345917 -103.95962524 46.94088745 C-103.96769699 45.82357742 -103.97576874 44.7062674 -103.98408508 43.55509949 C-103.99793346 41.18704789 -104.00865223 38.81897627 -104.01651001 36.45089722 C-104.03372436 32.82933732 -104.07760528 29.2086897 -104.12173462 25.58737183 C-104.13186114 23.28855043 -104.14037737 20.98972125 -104.14712524 18.69088745 C-104.16463333 17.60740524 -104.18214142 16.52392303 -104.20018005 15.40760803 C-104.17853113 7.90243824 -104.17853113 7.90243824 -101.88223267 3.95578003 C-97.76043155 0.44775519 -93.32813958 0.94722465 -88.18936157 0.91134644 C-87.31729568 0.90144684 -86.4452298 0.89154724 -85.54673767 0.88134766 C-82.65314463 0.84968232 -79.75953576 0.82492752 -76.86587524 0.80026245 C-74.84582618 0.77966957 -72.82578121 0.75867251 -70.80574036 0.73728943 C-65.47061689 0.68201053 -60.13545354 0.63268382 -54.80026245 0.58444214 C-50.48879169 0.54448307 -46.17736836 0.50037679 -41.86594105 0.45600796 C-36.67843285 0.40269555 -31.49090731 0.35119368 -26.30337524 0.30026245 C-25.33184824 0.29070463 -24.36032124 0.28114681 -23.35935402 0.27129936 C-18.80047035 0.2271989 -14.2416926 0.18793871 -9.68267822 0.16033936 C-6.45360366 0.13906859 -3.22801204 0.08451516 0 0 Z M-94.72134399 11.1166687 C-94.82962349 26.15537644 -94.7339584 41.10827657 -93.72134399 56.1166687 C-89.43134399 56.1166687 -85.14134399 56.1166687 -80.72134399 56.1166687 C-84.3951552 67.20561652 -88.08994879 78.28746102 -91.79977417 89.3644104 C-92.4145461 91.20042012 -93.02892551 93.03656132 -93.64291382 94.87283325 C-100.75237853 116.13184387 -107.9105035 137.33038504 -116.21743774 158.1569519 C-116.91353149 159.90431641 -116.91353149 159.90431641 -117.62368774 161.6869812 C-118.03095093 162.69518921 -118.43821411 163.70339722 -118.8578186 164.74215698 C-119.83526611 167.0088213 -119.83526611 167.0088213 -119.72134399 169.1166687 C-124.67134399 169.4466687 -129.62134399 169.7766687 -134.72134399 170.1166687 C-135.71134399 183.3166687 -136.70134399 196.5166687 -137.72134399 210.1166687 C-130.9501272 209.43954702 -124.41034488 208.63245339 -117.74478149 207.40963745 C-116.82369095 207.24405838 -115.9026004 207.07847931 -114.95359802 206.90788269 C-113.00197493 206.55674233 -111.05064962 206.20394337 -109.09960938 205.84957886 C-104.06215632 204.93474859 -99.02253286 204.03202858 -93.98306274 203.12838745 C-93.00136612 202.9520578 -92.01966949 202.77572815 -91.00822449 202.59405518 C-80.26240612 200.66787036 -69.49812966 198.86115371 -58.72134399 197.1166687 C-57.95763761 186.09747655 -57.58755188 175.16195066 -57.72134399 164.1166687 C-59.30458087 164.0894757 -60.88795461 164.07018565 -62.47134399 164.0541687 C-63.79392212 164.03676636 -63.79392212 164.03676636 -65.14321899 164.01901245 C-67.50322779 164.10840672 -69.46632924 164.44754049 -71.72134399 165.1166687 C-70.8489617 162.96119493 -69.94761003 160.81742726 -69.03384399 158.6791687 C-68.53497681 157.48420776 -68.03610962 156.28924683 -67.52212524 155.05807495 C-65.72134399 152.1166687 -65.72134399 152.1166687 -63.71353149 151.46627808 C-59.49627929 150.97353125 -55.28636165 150.76477825 -51.04556274 150.58151245 C-50.12040359 150.53853531 -49.19524445 150.49555817 -48.24205017 150.45127869 C-45.29779925 150.31532848 -42.35334064 150.18467737 -39.40884399 150.0541687 C-37.40817693 149.96272166 -35.40752565 149.87092872 -33.40689087 149.77877808 C-28.51188236 149.55406633 -23.61668083 149.33410559 -18.72134399 149.1166687 C-17.07134399 153.0766687 -15.42134399 157.0366687 -13.72134399 161.1166687 C-18.34134399 161.4466687 -22.96134399 161.7766687 -27.72134399 162.1166687 C-28.4233622 172.47143724 -28.86944092 182.73342856 -28.72134399 193.1166687 C-27.49028931 193.00709839 -26.25923462 192.89752808 -24.99087524 192.78463745 C-13.08399526 191.73296494 -1.17336853 190.72736385 10.73999023 189.7520752 C12.32400966 189.62219486 13.90797577 189.49166232 15.49188232 189.3604126 C26.41374936 188.45655094 37.33570605 187.71401401 48.27865601 187.1166687 C49.05287688 177.72203049 49.37486524 168.54517342 49.27865601 159.1166687 C44.32865601 159.1166687 39.37865601 159.1166687 34.27865601 159.1166687 C33.87904663 157.85983276 33.47943726 156.60299683 33.06771851 155.30807495 C31.57366661 150.82852819 29.80883975 146.50978573 27.96713257 142.16378784 C19.08781847 121.14225928 11.79141421 99.51958513 4.27890015 77.98269653 C2.61040925 73.20192236 0.93642057 68.42307366 -0.73696899 63.64401245 C-1.31805553 61.98378597 -1.89911359 60.32354952 -2.48013306 58.66329956 C-3.09453247 56.90771729 -3.09453247 56.90771729 -3.72134399 55.1166687 C0.56865601 55.1166687 4.85865601 55.1166687 9.27865601 55.1166687 C9.27865601 40.2666687 9.27865601 25.4166687 9.27865601 10.1166687 C-5.76919372 10.0875128 -5.76919372 10.0875128 -20.81704712 10.06784058 C-26.96752806 10.06189649 -33.11799391 10.05491669 -39.26846313 10.04122925 C-44.23517585 10.03024719 -49.20187234 10.02435992 -54.16859627 10.02179146 C-56.04969602 10.01996449 -57.93079503 10.01639797 -59.81188774 10.01093864 C-71.48909105 9.97844192 -83.0728607 10.27820417 -94.72134399 11.1166687 Z " fill="#000000" transform="translate(475.7213439941406,465.8833312988281)"/>
<path d="M0 0 C-1.76402616 4.06537063 -4.45895192 7.43597421 -7.125 10.9375 C-7.64852051 11.63061279 -8.17204102 12.32372559 -8.71142578 13.0378418 C-11.74841164 17.0528625 -14.80353424 21.05400887 -17.859375 25.0546875 C-19.19796286 26.80725638 -20.53650379 28.55986112 -21.875 30.3125 C-22.55449707 31.20187256 -23.23399414 32.09124512 -23.93408203 33.00756836 C-28.93007973 39.56044459 -33.83399733 46.17570367 -38.70166016 52.82421875 C-43.14441348 58.87735981 -47.68357802 64.85226981 -52.25 70.8125 C-58.33715673 78.75954014 -64.26413805 86.79606284 -70 95 C-73.49086922 93.53383493 -75.41718814 91.66719588 -77.875 88.8125 C-78.65230469 87.92820312 -79.42960938 87.04390625 -80.23046875 86.1328125 C-80.66407715 85.63942383 -81.09768555 85.14603516 -81.54443359 84.63769531 C-84.38075518 81.44647673 -87.28364824 78.31717282 -90.1875 75.1875 C-91.06027588 74.23677612 -91.06027588 74.23677612 -91.95068359 73.2668457 C-98.38418877 65.9163801 -98.38418877 65.9163801 -106.875 61.6875 C-107.90625 61.460625 -108.9375 61.23375 -110 61 C-108.58831388 57.98122248 -106.92772455 55.38101835 -104.953125 52.69921875 C-104.355 51.88646484 -103.756875 51.07371094 -103.140625 50.23632812 C-102.51671875 49.39521484 -101.8928125 48.55410156 -101.25 47.6875 C-100.6415625 46.85798828 -100.033125 46.02847656 -99.40625 45.17382812 C-97.62650553 42.7647082 -95.81979219 40.37896608 -94 38 C-93.48800049 37.3100293 -92.97600098 36.62005859 -92.44848633 35.90917969 C-89.10625765 31.64749257 -86.64792444 30.01885958 -81.1875 28.875 C-79.85366823 28.56725658 -78.52035166 28.25727347 -77.1875 27.9453125 C-76.49914062 27.79223633 -75.81078125 27.63916016 -75.1015625 27.48144531 C-55.74790586 23.04773122 -35.8430543 15.33265559 -20.2421875 2.78125 C-14.79773315 -1.54396112 -6.61839304 -0.09638436 0 0 Z " fill="#000000" transform="translate(803,392)"/>
<path d="M0 0 C0.82886719 -0.020625 1.65773438 -0.04125 2.51171875 -0.0625 C3.30964844 -0.06765625 4.10757812 -0.0728125 4.9296875 -0.078125 C5.66171387 -0.0874707 6.39374023 -0.09681641 7.14794922 -0.10644531 C9.79293725 0.37042336 10.48710628 1.12238359 12.125 3.25 C13.23148851 5.26062856 14.2691935 7.30964607 15.26171875 9.37890625 C15.54602249 9.96921127 15.83032623 10.5595163 16.12324524 11.16770935 C16.72036122 12.41105778 17.31439418 13.65589098 17.90551758 14.90209961 C18.81269597 16.81291277 19.73073848 18.71821093 20.65039062 20.62304688 C25.125 29.96709092 25.125 29.96709092 25.125 32.25 C25.785 32.25 26.445 32.25 27.125 32.25 C27.39900635 31.38415283 27.6730127 30.51830566 27.95532227 29.6262207 C29.89273581 24.03396607 32.51919791 18.77510784 35.0625 13.4375 C35.60068359 12.28056641 36.13886719 11.12363281 36.69335938 9.93164062 C37.21607422 8.83400391 37.73878906 7.73636719 38.27734375 6.60546875 C38.75163818 5.60153076 39.22593262 4.59759277 39.71459961 3.56323242 C41.125 1.25 41.125 1.25 44.125 0.25 C47.01026611 0.15363551 49.86554778 0.11072053 52.75 0.125 C53.53890625 0.12113281 54.3278125 0.11726562 55.140625 0.11328125 C60.99834606 0.12334606 60.99834606 0.12334606 62.125 1.25 C62.21881302 3.09118029 62.24243954 4.93597641 62.23852539 6.77954102 C62.23841209 8.55126427 62.23841209 8.55126427 62.23829651 10.35877991 C62.23313522 11.6441716 62.22797394 12.92956329 62.22265625 14.25390625 C62.2212413 15.56205795 62.21982635 16.87020966 62.21836853 18.21800232 C62.2145441 21.70162859 62.20471446 25.18521339 62.19366455 28.66882324 C62.18344882 32.22126708 62.17887056 35.77371759 62.17382812 39.32617188 C62.16309212 46.30079832 62.1460166 53.27539717 62.125 60.25 C59.13816593 61.74341703 56.38100226 61.38175178 53.0625 61.375 C51.79277344 61.37757813 50.52304687 61.38015625 49.21484375 61.3828125 C46.125 61.25 46.125 61.25 45.125 60.25 C44.96813751 58.69051458 44.87423361 57.12457332 44.80859375 55.55859375 C44.76669922 54.61435547 44.72480469 53.67011719 44.68164062 52.69726562 C44.64232422 51.70404297 44.60300781 50.71082031 44.5625 49.6875 C44.51931641 48.69041016 44.47613281 47.69332031 44.43164062 46.66601562 C44.32519702 44.1941585 44.22318072 41.7221969 44.125 39.25 C43.83778076 39.84538574 43.55056152 40.44077148 43.25463867 41.05419922 C41.94898937 43.74863003 40.630928 46.4368005 39.3125 49.125 C38.86068359 50.06214844 38.40886719 50.99929688 37.94335938 51.96484375 C37.50185547 52.86074219 37.06035156 53.75664063 36.60546875 54.6796875 C36.20223389 55.50710449 35.79899902 56.33452148 35.38354492 57.18701172 C34.125 59.25 34.125 59.25 31.125 61.25 C28.20703125 61.4453125 28.20703125 61.4453125 24.9375 61.375 C23.85082031 61.35695313 22.76414062 61.33890625 21.64453125 61.3203125 C20.81308594 61.29710937 19.98164063 61.27390625 19.125 61.25 C15.45833333 53.91666667 11.79166667 46.58333333 8.125 39.25 C7.795 46.18 7.465 53.11 7.125 60.25 C4.13816593 61.74341703 1.38100226 61.38175178 -1.9375 61.375 C-3.20722656 61.37757813 -4.47695313 61.38015625 -5.78515625 61.3828125 C-8.875 61.25 -8.875 61.25 -9.875 60.25 C-9.97405152 58.41427369 -10.00299207 56.57472425 -10.00439453 54.73632812 C-10.00754669 53.55840698 -10.01069885 52.38048584 -10.01394653 51.16687012 C-10.0119223 49.88461548 -10.00989807 48.60236084 -10.0078125 47.28125 C-10.00876923 45.97546997 -10.00972595 44.66968994 -10.01071167 43.32434082 C-10.01218833 40.55687278 -10.01003511 37.78943696 -10.00537109 35.02197266 C-9.99967381 31.46737351 -10.00295298 27.91284986 -10.00894356 24.35825348 C-10.01341747 20.97841286 -10.01028886 17.59859277 -10.0078125 14.21875 C-10.00983673 12.93649536 -10.01186096 11.65424072 -10.01394653 10.33312988 C-10.01079437 9.15520874 -10.00764221 7.9772876 -10.00439453 6.76367188 C-10.00359894 5.72078003 -10.00280334 4.67788818 -10.00198364 3.60339355 C-9.71285367 -1.75506531 -4.17890551 0.02575597 0 0 Z " fill="#000000" transform="translate(435.875,718.75)"/>
<path d="M0 0 C0.95068359 -0.03738281 1.90136719 -0.07476563 2.88085938 -0.11328125 C9.91337233 -0.20174053 9.91337233 -0.20174053 13.62890625 2.56640625 C15.5915843 5.24413968 17.51838196 7.89357609 19.3125 10.6875 C22.69958318 15.88492074 26.16429861 21.01881263 29.6875 26.125 C31.3375 28.5175 32.9875 30.91 34.6875 33.375 C34.6875 22.815 34.6875 12.255 34.6875 1.375 C38.22134559 0.19705147 41.09027553 0.24235683 44.8125 0.25 C46.70355469 0.24613281 46.70355469 0.24613281 48.6328125 0.2421875 C51.6875 0.375 51.6875 0.375 52.6875 1.375 C52.78131302 3.21618029 52.80493954 5.06097641 52.80102539 6.90454102 C52.80091209 8.67626427 52.80091209 8.67626427 52.80079651 10.48377991 C52.79563522 11.7691716 52.79047394 13.05456329 52.78515625 14.37890625 C52.7837413 15.68705795 52.78232635 16.99520966 52.78086853 18.34300232 C52.7770441 21.82662859 52.76721446 25.31021339 52.75616455 28.79382324 C52.74594882 32.34626708 52.74137056 35.89871759 52.73632812 39.45117188 C52.72559212 46.42579832 52.7085166 53.40039717 52.6875 60.375 C46.44435885 63.49657058 36.37391016 62.66533549 29.6875 61.375 C26.06758611 58.99128149 24.61618892 56.18772297 22.74121094 52.34130859 C20.48012651 48.12194484 17.55642391 44.28954117 14.8125 40.375 C13.68717951 38.73116499 12.56460734 37.08544382 11.4453125 35.4375 C10.72045654 34.37208984 10.72045654 34.37208984 9.98095703 33.28515625 C8.87594159 31.65328747 7.78070346 30.01480519 6.6875 28.375 C6.3575 38.935 6.0275 49.495 5.6875 60.375 C0.32093685 63.05828157 -6.32418453 60.74926972 -12.3125 60.375 C-12.3125 40.905 -12.3125 21.435 -12.3125 1.375 C-8.56886763 -0.49681618 -4.12057994 0.06071853 0 0 Z " fill="#000000" transform="translate(771.3125,718.625)"/>
<path d="M0 0 C0.8206897 -0.0033284 1.64137939 -0.0066568 2.48693848 -0.01008606 C4.23217202 -0.01516278 5.97741533 -0.01749416 7.72265625 -0.01733398 C10.36735637 -0.0194994 13.01162497 -0.03758784 15.65625 -0.05664062 C17.35416525 -0.05957878 19.05208247 -0.06156075 20.75 -0.0625 C21.92242249 -0.07327827 21.92242249 -0.07327827 23.11853027 -0.08427429 C31.56304514 -0.04994837 39.71739969 0.94705186 45.90625 7.16796875 C50.68890074 12.88450988 50.43672607 19.50195475 50.23046875 26.6640625 C49.71022874 32.28641539 48.31828305 35.48137372 44.65625 39.85546875 C42.6820981 41.92251624 42.6820981 41.92251624 43.07421875 43.93359375 C44.60840994 48.05358137 47.11682524 51.65761738 49.41015625 55.390625 C50.90625 58.16796875 50.90625 58.16796875 50.90625 61.16796875 C37.09451767 62.09335482 37.09451767 62.09335482 30.90625 60.16796875 C28.05651112 56.98221588 26.66809503 53.9704161 24.9140625 50.09375 C23.12041743 46.82682754 23.12041743 46.82682754 19.3359375 46.0859375 C14.97884228 45.76046343 14.97884228 45.76046343 8.90625 46.16796875 C8.90625 50.78796875 8.90625 55.40796875 8.90625 60.16796875 C5.85642742 61.69288004 2.68502461 61.31158309 -0.65625 61.29296875 C-1.35427734 61.29683594 -2.05230469 61.30070313 -2.77148438 61.3046875 C-7.96711006 61.29460869 -7.96711006 61.29460869 -9.09375 60.16796875 C-9.19280152 58.33224244 -9.22174207 56.492693 -9.22314453 54.65429688 C-9.22629669 53.47637573 -9.22944885 52.29845459 -9.23269653 51.08483887 C-9.2306723 49.80258423 -9.22864807 48.52032959 -9.2265625 47.19921875 C-9.22751923 45.89343872 -9.22847595 44.58765869 -9.22946167 43.24230957 C-9.23093833 40.47484153 -9.22878511 37.70740571 -9.22412109 34.93994141 C-9.21842381 31.38534226 -9.22170298 27.83081861 -9.22769356 24.27622223 C-9.23216747 20.89638161 -9.22903886 17.51656152 -9.2265625 14.13671875 C-9.22858673 12.85446411 -9.23061096 11.57220947 -9.23269653 10.25109863 C-9.22954437 9.07317749 -9.22639221 7.89525635 -9.22314453 6.68164062 C-9.22234894 5.63874878 -9.22155334 4.59585693 -9.22073364 3.5213623 C-8.94202963 -1.64387168 -4.06770073 0.00567383 0 0 Z M8.90625 19.16796875 C8.90625 22.13796875 8.90625 25.10796875 8.90625 28.16796875 C12.36456586 28.19691422 15.82285072 28.21474875 19.28125 28.23046875 C20.26609375 28.23884766 21.2509375 28.24722656 22.265625 28.25585938 C23.20664062 28.25908203 24.14765625 28.26230469 25.1171875 28.265625 C25.98649902 28.27086182 26.85581055 28.27609863 27.75146484 28.28149414 C29.95674994 28.30919226 29.95674994 28.30919226 31.90625 27.16796875 C31.90625 24.85796875 31.90625 22.54796875 31.90625 20.16796875 C29.45349859 18.94159305 27.8556719 19.05381561 25.1171875 19.0703125 C23.70566406 19.07514648 23.70566406 19.07514648 22.265625 19.08007812 C21.28078125 19.08845703 20.2959375 19.09683594 19.28125 19.10546875 C17.79238281 19.11223633 17.79238281 19.11223633 16.2734375 19.11914062 C13.8176484 19.1309473 11.36197896 19.14741475 8.90625 19.16796875 Z " fill="#000000" transform="translate(291.09375,718.83203125)"/>
<path d="M0 0 C6.14795574 4.58859899 8.76511563 11.30199345 9.94140625 18.71484375 C10.65784109 29.22714724 9.95005875 39.34339771 2.94140625 47.71484375 C-5.39095961 55.17449299 -16.21055176 56.07573446 -26.9921875 55.92578125 C-36.37759924 55.28016057 -45.42353388 53.83186923 -52.05859375 46.71484375 C-59.0415961 38.04443209 -59.86485523 28.52134838 -59.05859375 17.71484375 C-57.89951116 10.22295538 -54.92564158 4.59091229 -49.05859375 -0.28515625 C-35.19577087 -8.35037361 -13.52395187 -8.44284661 0 0 Z M-37.93359375 15.90234375 C-40.07011587 21.24364906 -40.69957488 25.59185885 -38.87109375 31.02734375 C-37.50519138 34.20821227 -36.19077377 36.05087311 -33.05859375 37.71484375 C-27.35093267 39.61739744 -21.20230284 39.48045414 -15.55859375 37.46484375 C-11.43188809 34.57614979 -10.31177649 32.90285507 -9.24609375 27.90234375 C-8.89177261 23.75832692 -9.38277957 20.57650251 -11.05859375 16.71484375 C-15.20843401 12.00520099 -18.82715463 10.86116763 -24.87109375 10.46484375 C-30.09906977 10.55262693 -34.44520671 11.83255887 -37.93359375 15.90234375 Z " fill="#000000" transform="translate(408.05859375,724.28515625)"/>
<path d="M0 0 C6.14858961 4.58907208 8.76377017 11.30134421 9.94140625 18.71484375 C10.58207123 29.38266069 9.97818377 39.2112973 2.94140625 47.71484375 C-5.14557964 55.31931258 -16.36141305 56.07363625 -26.9921875 55.92578125 C-36.38530281 55.27963064 -45.412962 53.82711792 -52.05859375 46.71484375 C-58.79579041 38.505509 -59.792785 29.03940815 -59.05859375 18.71484375 C-58.0675654 11.64137891 -55.37699974 6.14634271 -50.49609375 1.02734375 C-37.08587522 -8.85042697 -13.90814249 -8.68269237 0 0 Z M-37.93359375 15.90234375 C-40.07011587 21.24364906 -40.69957488 25.59185885 -38.87109375 31.02734375 C-37.50519138 34.20821227 -36.19077377 36.05087311 -33.05859375 37.71484375 C-27.35093267 39.61739744 -21.20230284 39.48045414 -15.55859375 37.46484375 C-11.43188809 34.57614979 -10.31177649 32.90285507 -9.24609375 27.90234375 C-8.89177261 23.75832692 -9.38277957 20.57650251 -11.05859375 16.71484375 C-15.20843401 12.00520099 -18.82715463 10.86116763 -24.87109375 10.46484375 C-30.09906977 10.55262693 -34.44520671 11.83255887 -37.93359375 15.90234375 Z " fill="#000000" transform="translate(565.05859375,724.28515625)"/>
<path d="M0 0 C0.92039062 -0.01160156 1.84078125 -0.02320313 2.7890625 -0.03515625 C11.67174316 0.0023762 19.95996448 1.67592363 27 7.375 C33.58998616 14.34155679 35.34389582 22.77439669 35.14453125 32.14453125 C34.58582625 40.76670847 33.05074514 47.9078595 27 54.375 C18.27494694 61.44142911 5.82561626 62.31197078 -5 61.375 C-15.28100762 59.84235795 -23.00345785 57.69943827 -29.67578125 49.3984375 C-35.37967856 40.6827478 -35.27358242 29.16743959 -33.4140625 19.25 C-31.28196001 12.20819362 -27.3607386 7.13120218 -21 3.375 C-14.03085284 0.55279648 -7.45918803 -0.09402338 0 0 Z M-12.64453125 21.18359375 C-15.25351005 25.40156811 -15.60850167 30.66943059 -14.52734375 35.4765625 C-13.10477596 39.1301519 -11.40939818 41.45721353 -8 43.375 C-2.29888772 45.27537076 3.83492084 45.10958043 9.5 43.1875 C13.13188518 40.55438325 14.75064654 37.91891354 15.46875 33.47265625 C15.67461972 26.69868048 15.67461972 26.69868048 12.875 20.75 C8.20934009 16.89575921 4.07631675 15.94716044 -1.9765625 16.12109375 C-6.1506454 16.64486863 -9.75762498 18.00868258 -12.64453125 21.18359375 Z " fill="#000000" transform="translate(717,718.625)"/>
<path d="M0 0 C1.09783813 -0.00315216 2.19567627 -0.00630432 3.32678223 -0.009552 C5.11892151 -0.00651566 5.11892151 -0.00651566 6.94726562 -0.00341797 C8.16426147 -0.00437469 9.38125732 -0.00533142 10.63513184 -0.00631714 C13.21427461 -0.00699919 15.79341909 -0.00514319 18.37255859 -0.00097656 C22.33630198 0.00437131 26.29993204 -0.00092076 30.26367188 -0.00732422 C32.76237004 -0.00666344 35.26106814 -0.00538229 37.75976562 -0.00341797 C38.95452515 -0.0054422 40.14928467 -0.00746643 41.38024902 -0.009552 C42.47808716 -0.00639984 43.57592529 -0.00324768 44.70703125 0 C46.16477966 0.00119339 46.16477966 0.00119339 47.65197754 0.00241089 C49.85351562 0.12939453 49.85351562 0.12939453 50.85351562 1.12939453 C52.06898152 7.61335258 53.47770581 17.09616752 49.71679688 22.87646484 C46.57704397 25.92993768 42.78373987 27.91388596 38.93798828 29.94921875 C35.219169 32.05472032 31.8843251 34.6846355 28.47851562 37.25439453 C25.19914063 39.66751953 25.19914063 39.66751953 21.85351562 42.12939453 C31.42351563 42.45939453 40.99351562 42.78939453 50.85351562 43.12939453 C50.85351562 48.73939453 50.85351562 54.34939453 50.85351562 60.12939453 C48.26501646 61.42364411 46.47420862 61.21064165 43.57763672 61.15112305 C42.47664642 61.13102676 41.37565613 61.11093048 40.24130249 61.09022522 C38.45219955 61.04967262 38.45219955 61.04967262 36.62695312 61.00830078 C34.80002426 60.97288429 34.80002426 60.97288429 32.93618774 60.93675232 C29.03351582 60.85997829 25.1310355 60.77601296 21.22851562 60.69189453 C18.5879001 60.63868762 15.94727514 60.58594714 13.30664062 60.53369141 C6.82214622 60.40434457 0.33779493 60.26908807 -6.14648438 60.12939453 C-7.49236936 42.5713947 -7.49236936 42.5713947 -4.63623047 37.38916016 C-2.46887539 35.50342121 -0.38654961 34.1933046 2.16601562 32.87939453 C3.72528336 31.9378014 5.28386837 30.99507684 6.84179688 30.05126953 C8.49566406 29.08705078 10.14953125 28.12283203 11.85351562 27.12939453 C15.48351562 24.48939453 19.11351562 21.84939453 22.85351562 19.12939453 C13.28351562 18.79939453 3.71351563 18.46939453 -6.14648438 18.12939453 C-7.68764695 15.04706938 -7.02017506 11.91489285 -6.77148438 8.56689453 C-6.72765625 7.86886719 -6.68382812 7.17083984 -6.63867188 6.45166016 C-6.21440662 0.37641747 -5.99432507 0.00490727 0 0 Z " fill="#000000" transform="translate(838.146484375,718.87060546875)"/>
<path d="M0 0 C0.77629761 -0.0033284 1.55259521 -0.0066568 2.35241699 -0.01008606 C4.00349331 -0.0151627 5.65457995 -0.01749416 7.30566406 -0.01733398 C9.80551754 -0.01949815 12.30491353 -0.03758294 14.8046875 -0.05664062 C16.41145683 -0.05957905 18.01822825 -0.06156084 19.625 -0.0625 C20.36286743 -0.06968552 21.10073486 -0.07687103 21.86096191 -0.08427429 C29.76769016 -0.05033912 37.12298599 0.95988725 43.34375 6.16796875 C48.12198269 12.00803093 49.84070777 18.52008613 49.58984375 26.03125 C48.71941508 33.5887815 46.34617291 40.23787412 40.34375 45.16796875 C34.52360511 49.25061525 28.27778013 48.50532889 21.46875 48.35546875 C19.72078125 48.33516602 19.72078125 48.33516602 17.9375 48.31445312 C15.07271707 48.27923038 12.20817322 48.22542746 9.34375 48.16796875 C9.34375 52.12796875 9.34375 56.08796875 9.34375 60.16796875 C6.29392742 61.69288004 3.12252461 61.31158309 -0.21875 61.29296875 C-0.91677734 61.29683594 -1.61480469 61.30070313 -2.33398438 61.3046875 C-7.52961006 61.29460869 -7.52961006 61.29460869 -8.65625 60.16796875 C-8.75530152 58.33224244 -8.78424207 56.492693 -8.78564453 54.65429688 C-8.78879669 53.47637573 -8.79194885 52.29845459 -8.79519653 51.08483887 C-8.7931723 49.80258423 -8.79114807 48.52032959 -8.7890625 47.19921875 C-8.79001923 45.89343872 -8.79097595 44.58765869 -8.79196167 43.24230957 C-8.79343833 40.47484153 -8.79128511 37.70740571 -8.78662109 34.93994141 C-8.78092381 31.38534226 -8.78420298 27.83081861 -8.79019356 24.27622223 C-8.79466747 20.89638161 -8.79153886 17.51656152 -8.7890625 14.13671875 C-8.79108673 12.85446411 -8.79311096 11.57220947 -8.79519653 10.25109863 C-8.79204437 9.07317749 -8.78889221 7.89525635 -8.78564453 6.68164062 C-8.78484894 5.63874878 -8.78405334 4.59585693 -8.78323364 3.5213623 C-8.51052984 -1.53266962 -4.00807564 0.00591501 0 0 Z M9.34375 19.16796875 C9.34375 22.79796875 9.34375 26.42796875 9.34375 30.16796875 C12.61480248 30.22183787 15.88497096 30.26157882 19.15625 30.29296875 C20.5494043 30.31810547 20.5494043 30.31810547 21.97070312 30.34375 C22.86337891 30.35019531 23.75605469 30.35664062 24.67578125 30.36328125 C25.49796143 30.37375488 26.3201416 30.38422852 27.16723633 30.39501953 C29.63796592 30.3079301 29.63796592 30.3079301 32.34375 28.16796875 C32.76041667 24.66796875 32.76041667 24.66796875 32.34375 21.16796875 C30.55720939 18.96201766 30.55720939 18.96201766 28.18896484 18.94091797 C26.88499756 18.95662842 26.88499756 18.95662842 25.5546875 18.97265625 C24.61367187 18.97910156 23.67265625 18.98554687 22.703125 18.9921875 C21.71828125 19.00894531 20.7334375 19.02570312 19.71875 19.04296875 C18.72617188 19.05199219 17.73359375 19.06101562 16.7109375 19.0703125 C14.25510612 19.09392626 11.79939826 19.12979805 9.34375 19.16796875 Z " fill="#000000" transform="translate(224.65625,718.83203125)"/>
<path d="M0 0 C3.42574205 1.32645602 6.56256183 2.83869765 9.75341797 4.66455078 C23.20970582 12.27343689 37.66693051 16.60370845 52.625 20.25 C53.68630127 20.51240479 54.74760254 20.77480957 55.84106445 21.04516602 C60.59502853 22.16916385 65.13814883 23.11648787 70.02734375 23.30078125 C75.99552695 23.58773734 80.67742818 23.86807577 85.24853516 28.06396484 C92.2651211 35.91632559 97.93803868 44.79180906 103 54 C99.1333733 55.24275526 95.25213065 55.17018548 91.234375 55.2109375 C89.68879169 55.23901682 88.14321892 55.26768135 86.59765625 55.296875 C84.17757589 55.33800119 81.75769004 55.37491596 79.33740234 55.40136719 C76.99015344 55.42920208 74.64377938 55.4750764 72.296875 55.5234375 C71.58513123 55.52669037 70.87338745 55.52994324 70.14007568 55.53329468 C63.55035382 55.6921518 58.0224813 57.06740676 53.1875 61.6875 C52.465625 62.450625 51.74375 63.21375 51 64 C48 64 48 64 46.56469727 62.6015625 C46.07026123 61.94929688 45.5758252 61.29703125 45.06640625 60.625 C44.50646973 59.89563232 43.9465332 59.16626465 43.36962891 58.41479492 C42.77327637 57.6179126 42.17692383 56.82103027 41.5625 56 C40.93778809 55.18055908 40.31307617 54.36111816 39.66943359 53.5168457 C37.7693248 51.0188225 35.88288729 48.51102051 34 46 C32.99093213 44.66012107 31.98182115 43.32027461 30.97265625 41.98046875 C29.54338634 40.07924479 28.11663517 38.17627882 26.69506836 36.26928711 C23.79181146 32.37507234 20.8613765 28.50348469 17.90625 24.6484375 C17.19710449 23.72264893 16.48795898 22.79686035 15.75732422 21.84301758 C14.37585066 20.04159757 12.99219745 18.24184615 11.60595703 16.4440918 C7.51030608 11.09976677 3.65659806 5.65413656 0 0 Z " fill="#000000" transform="translate(313,400)"/>
<path d="M0 0 C1.29804565 -0.00315216 2.59609131 -0.00630432 3.93347168 -0.009552 C5.36124709 -0.00776222 6.78902219 -0.00571127 8.21679688 -0.00341797 C9.67028825 -0.00409105 11.12377952 -0.00506111 12.57727051 -0.00631714 C15.62720814 -0.00779393 18.67711654 -0.00564017 21.72705078 -0.00097656 C25.64485247 0.00472073 29.56258566 0.00144162 33.48038483 -0.00454903 C36.48285441 -0.00815515 39.48530764 -0.00701582 42.48777771 -0.00442123 C43.93273425 -0.00375211 45.37769226 -0.00457989 46.82264709 -0.00690079 C48.83879571 -0.00942812 50.8549495 -0.00489598 52.87109375 0 C54.59531555 0.00119339 54.59531555 0.00119339 56.35437012 0.00241089 C58.93554688 0.12939453 58.93554688 0.12939453 59.93554688 1.12939453 C60.0222412 2.61811313 60.04258181 4.11083953 60.03320312 5.60205078 C60.03070557 6.4116626 60.02820801 7.22127441 60.02563477 8.05541992 C60.01653076 9.09045654 60.00742676 10.12549316 59.99804688 11.19189453 C59.97742188 14.47126953 59.95679688 17.75064453 59.93554688 21.12939453 C51.68554688 21.12939453 43.43554688 21.12939453 34.93554688 21.12939453 C34.93554688 33.99939453 34.93554688 46.86939453 34.93554688 60.12939453 C31.94871281 61.62281156 29.19154913 61.26114632 25.87304688 61.25439453 C24.60332031 61.25697266 23.33359375 61.25955078 22.02539062 61.26220703 C18.93554688 61.12939453 18.93554688 61.12939453 17.93554688 60.12939453 C17.8468948 57.24505633 17.82033392 54.38477295 17.83789062 51.50048828 C17.83930557 50.63625748 17.84072052 49.77202667 17.84217834 48.88160706 C17.84779449 46.11000161 17.86034968 43.33847573 17.87304688 40.56689453 C17.8780598 38.69254674 17.88262306 36.81819768 17.88671875 34.94384766 C17.89692006 30.33897432 17.9164922 25.73427393 17.93554688 21.12939453 C9.68554688 21.12939453 1.43554688 21.12939453 -7.06445312 21.12939453 C-7.08507812 17.85001953 -7.10570312 14.57064453 -7.12695312 11.19189453 C-7.13605713 10.15685791 -7.14516113 9.12182129 -7.15454102 8.05541992 C-7.15828735 6.8410022 -7.15828735 6.8410022 -7.16210938 5.60205078 C-7.16734619 4.76939697 -7.17258301 3.93674316 -7.17797852 3.07885742 C-6.92966254 -1.18523525 -3.52638097 0.00244072 0 0 Z " fill="#000000" transform="translate(588.064453125,718.87060546875)"/>
<path d="M0 0 C0.99 0.33 1.98 0.66 3 1 C3.84936523 2.81005859 3.84936523 2.81005859 4.55859375 5.1484375 C7.50784682 14.6112868 7.50784682 14.6112868 14.32763672 21.17382812 C19.46192514 22.5860701 24.65645865 22.91595337 29.96630859 22.91259766 C32 23 32 23 35 24 C35 24.66 35 25.32 35 26 C33.49609375 27.48046875 33.49609375 27.48046875 31.4375 29.1875 C30.715625 29.8165625 29.99375 30.445625 29.25 31.09375 C27.8250676 32.30098439 26.36906232 33.47320326 24.875 34.59375 C21.84928336 37.08264595 20.13728055 38.68820812 19.71875 42.6875 C19.94959123 45.85332262 20.41758591 48.8799245 21 52 C21.17789063 53.13566406 21.35578125 54.27132812 21.5390625 55.44140625 C21.99158721 58.30176763 22.47976078 61.15131144 23 64 C17.47135298 63.34081516 13.22756024 60.48993171 8.52734375 57.70703125 C5.82459309 56.1836627 3.68818142 54.99890591 0.54296875 55.00390625 C-3.16223017 56.45525145 -6.66484017 58.21669001 -10.1875 60.0625 C-17.74615385 64 -17.74615385 64 -20 64 C-19.90388428 63.42032471 -19.80776855 62.84064941 -19.70874023 62.2434082 C-19.27589388 59.60117038 -18.85658643 56.95695368 -18.4375 54.3125 C-18.28603516 53.40048828 -18.13457031 52.48847656 -17.97851562 51.54882812 C-17.83994141 50.66259766 -17.70136719 49.77636719 -17.55859375 48.86328125 C-17.42767334 48.05157471 -17.29675293 47.23986816 -17.16186523 46.40356445 C-16.92145481 42.83366906 -17.10125719 40.11115296 -19.39868164 37.27075195 C-19.97996826 36.76503662 -20.56125488 36.25932129 -21.16015625 35.73828125 C-22.1027832 34.89620117 -22.1027832 34.89620117 -23.06445312 34.03710938 C-23.72380859 33.46798828 -24.38316406 32.89886719 -25.0625 32.3125 C-26.37009992 31.16755585 -27.67371732 30.01804196 -28.97265625 28.86328125 C-29.84289429 28.10978394 -29.84289429 28.10978394 -30.73071289 27.34106445 C-32 26 -32 26 -32 24 C-29.29273634 23.4935186 -26.58442876 22.994649 -23.875 22.5 C-23.11445312 22.35691406 -22.35390625 22.21382813 -21.5703125 22.06640625 C-17.31957086 21.29687544 -13.34140803 20.83355624 -9 21 C-8.74476563 20.17242187 -8.48953125 19.34484375 -8.2265625 18.4921875 C-6.84742497 14.56559849 -5.16394698 10.87742537 -3.375 7.125 C-3.05015625 6.43664062 -2.7253125 5.74828125 -2.390625 5.0390625 C-1.59676528 3.35794781 -0.79880442 1.67877079 0 0 Z " fill="#000000" transform="translate(543,370)"/>
<path d="M0 0 C3.10932891 2.89429121 4.28948485 5.67854333 5.86328125 9.6484375 C6.13159256 10.31997864 6.39990387 10.99151978 6.67634583 11.68341064 C7.56328118 13.91077901 8.43823977 16.14262894 9.3125 18.375 C9.93508113 19.94982684 10.55797067 21.5245318 11.18115234 23.09912109 C17.97904828 40.32613973 24.5486141 57.64057067 31 75 C31.29253662 75.78697266 31.58507324 76.57394531 31.88647461 77.38476562 C33.62317676 82.06156157 35.3512811 86.74141635 37.06829834 91.42547607 C37.60193062 92.88045878 38.13694323 94.33493604 38.67340088 95.78887939 C39.4096575 97.78715724 40.13942845 99.7876769 40.8671875 101.7890625 C41.28081543 102.92037598 41.69444336 104.05168945 42.12060547 105.21728516 C43 108 43 108 43 111 C39.7 111 36.4 111 33 111 C32.67725098 110.0713916 32.35450195 109.1427832 32.02197266 108.18603516 C30.82384796 104.74371967 29.61815839 101.30409473 28.41015625 97.86523438 C27.88822765 96.37605004 27.36835785 94.88614248 26.85058594 93.39550781 C26.10630789 91.25392614 25.35468236 89.11504828 24.6015625 86.9765625 C24.256129 85.97491562 24.256129 85.97491562 23.90371704 84.95303345 C22.88948833 82.09348678 22.17393605 80.17393605 20 78 C19.91435791 78.96413818 19.82871582 79.92827637 19.74047852 80.92163086 C19.42257258 84.48715136 19.09878814 88.05211744 18.77319336 91.61694336 C18.63290691 93.16204501 18.49423083 94.70729374 18.35717773 96.25268555 C18.16028869 98.46964194 17.95767821 100.68601077 17.75390625 102.90234375 C17.6934462 103.5971434 17.63298615 104.29194305 17.57069397 105.00779724 C17.11387171 109.88612829 17.11387171 109.88612829 16 111 C13.03 111 10.06 111 7 111 C8.32 95.49 9.64 79.98 11 64 C6.05 64.99 6.05 64.99 1 66 C-0.65 66 -2.3 66 -4 66 C-3.5934629 58.52916446 -3.18422925 51.05847999 -2.77319336 43.58789062 C-2.63391241 41.05081461 -2.4952301 38.51370566 -2.35717773 35.9765625 C-2.15769458 32.31240991 -1.95599981 28.64838444 -1.75390625 24.984375 C-1.6934462 23.86512634 -1.63298615 22.74587769 -1.57069397 21.5927124 C-1.17031534 14.38287233 -0.63765578 7.19272077 0 0 Z M7 42 C6.67 46.29 6.34 50.58 6 55 C8.31 55 10.62 55 13 55 C11.35 50.71 9.7 46.42 8 42 C7.67 42 7.34 42 7 42 Z " fill="#000000" transform="translate(192,589)"/>
<path d="M0 0 C9.34096465 8.77282011 15.63914382 21.1112018 16.40625 33.921875 C16.88324549 49.26522982 12.06490539 61.95912894 1.60693359 73.11523438 C-7.93912135 82.8166386 -20.1526488 87.63224131 -33.75 87.8125 C-47.57134407 87.61295548 -59.53224724 82.3971038 -69.5625 72.9375 C-79.72053189 62.00181974 -84.14414195 49.34858335 -83.9609375 34.52734375 C-83.06146428 20.81870558 -76.85868086 8.56421656 -66.75 -0.6875 C-46.0938489 -16.54062508 -20.25675185 -16.69813328 0 0 Z M-67.859375 7.828125 C-77.02897239 19.87743066 -79.10498597 32.5534824 -77.75 47.3125 C-75.05720284 59.51816936 -67.79801942 69.10692037 -57.375 75.84375 C-45.44923475 82.51649961 -33.26212271 83.62101888 -20.046875 80.390625 C-15.05276349 78.75747953 -10.97706995 76.39917338 -6.75 73.3125 C-6.11578125 72.87164062 -5.4815625 72.43078125 -4.828125 71.9765625 C3.0118115 65.97519518 7.93233736 56.78548618 10.25 47.3125 C10.65430563 44.17270075 10.72827654 41.10059419 10.6875 37.9375 C10.67992676 37.10750488 10.67235352 36.27750977 10.66455078 35.42236328 C10.38068544 24.81160133 6.75068172 16.63210726 0.25 8.3125 C-0.22824219 7.69632812 -0.70648437 7.08015625 -1.19921875 6.4453125 C-7.0351873 -0.1697652 -16.98045088 -5.58627025 -25.75 -6.6875 C-42.27214133 -7.61032637 -55.96814637 -4.64316356 -67.859375 7.828125 Z " fill="#000000" transform="translate(577.75,367.6875)"/>
<path d="M0 0 C0.66 0 1.32 0 2 0 C2.556875 1.0725 3.11375 2.145 3.6875 3.25 C6.55229002 8.17385785 9.20091551 10.49470158 14.796875 12.06640625 C21.16008196 13.40389561 27.58251892 13.45964163 34.0625 13.625 C35.30966797 13.66367187 36.55683594 13.70234375 37.84179688 13.7421875 C40.89439017 13.83575358 43.94698847 13.92149672 47 14 C45.1503919 17.85087469 42.80721634 21.23241165 40.3125 24.6875 C39.90322266 25.26177734 39.49394531 25.83605469 39.07226562 26.42773438 C38.20525009 27.63569611 37.32099713 28.83142587 36.42211914 30.01586914 C34.93124492 32.01822326 34.93124492 32.01822326 33.65405273 34.40405273 C31.14500398 38.46167716 29.32588653 40.60033922 24.66870117 42.00415039 C20.54368869 42.54655131 16.59039732 42.72931539 12.4375 42.6875 C11.71823334 42.69169952 10.99896667 42.69589905 10.25790405 42.70022583 C3.00779514 42.66522663 -3.4707845 42.38414911 -9.0390625 37.203125 C-12.15352637 33.51568984 -14.58275097 29.54472434 -16.79052734 25.26123047 C-17.99046377 23.01782893 -19.32969306 21.02310945 -20.83203125 18.97265625 C-23 16 -23 16 -23 15 C-22.13117187 14.82984375 -21.26234375 14.6596875 -20.3671875 14.484375 C-11.46236825 12.80036199 -11.46236825 12.80036199 -4 8 C-2.43019684 5.41997651 -1.15118781 2.78993751 0 0 Z " fill="#000000" transform="translate(544,659)"/>
<path d="M0 0 C2.03116502 -0.02655541 4.06219653 -0.0674236 6.09277344 -0.12304688 C9.0233402 -0.20240643 11.95132686 -0.23535046 14.8828125 -0.25878906 C15.78411896 -0.29178101 16.68542542 -0.32477295 17.61404419 -0.35876465 C22.62785055 -0.34297703 25.29688723 0.24629142 28.94091797 3.81738281 C34.42520821 10.04526195 34.51437633 15.53231269 34.83642578 23.50732422 C34.92793774 25.27522908 35.0981362 27.03862705 35.27734375 28.79980469 C35.6582534 33.99220472 35.33695246 37.92953938 32.30859375 42.27636719 C28.34793968 46.48629319 24.94067759 47.04881781 19.41505432 47.31030273 C14.41489128 47.35982999 9.43355401 47.21028548 4.4375 47.02246094 C2.35425287 46.97727857 0.27091195 46.93622057 -1.8125 46.89941406 C-6.89816011 46.80061348 -11.97929666 46.6455372 -17.0625 46.45996094 C-19.15413921 41.29795909 -19.34096434 36.84824969 -19.29296875 31.37792969 C-19.29228142 30.0957531 -19.29228142 30.0957531 -19.2915802 28.78767395 C-19.28857227 26.99165447 -19.28072998 25.19563726 -19.26831055 23.3996582 C-19.24994416 20.63906725 -19.24780181 17.87881001 -19.24804688 15.11816406 C-19.24313531 13.37141635 -19.23730857 11.62467092 -19.23046875 9.87792969 C-19.22935593 9.04883591 -19.2282431 8.21974213 -19.22709656 7.36552429 C-19.13782271 -3.28836192 -8.69353511 0.08682332 0 0 Z M-10.0625 10.45996094 C-10.22561941 19.1777873 -9.71905389 27.77234605 -9.0625 36.45996094 C-4.54184572 36.50933794 -0.02134783 36.54566917 4.49951172 36.56982422 C6.03795098 36.57989211 7.57637107 36.5935474 9.11474609 36.61083984 C11.32394133 36.6350541 13.53288395 36.64643585 15.7421875 36.65527344 C16.77664505 36.67075729 16.77664505 36.67075729 17.83200073 36.68655396 C19.53550906 36.68695572 21.23835943 36.58187119 22.9375 36.45996094 C25.80616099 33.59129995 25.2280793 31.29345998 25.25976562 27.37011719 C25.25654297 26.45101562 25.25332031 25.53191406 25.25 24.58496094 C25.26611328 23.67359375 25.28222656 22.76222656 25.29882812 21.82324219 C25.29947266 20.9428125 25.30011719 20.06238281 25.30078125 19.15527344 C25.30376221 18.35105957 25.30674316 17.5468457 25.30981445 16.71826172 C24.81895486 13.74091666 24.19892603 12.48490544 21.9375 10.45996094 C19.35952563 10.10284227 17.21435887 9.99182501 14.64453125 10.06933594 C13.93850266 10.07499573 13.23247406 10.08065552 12.50505066 10.08648682 C10.25267374 10.10885683 8.00189497 10.15904895 5.75 10.20996094 C4.22202821 10.23002538 2.69403144 10.24827625 1.16601562 10.26464844 C-2.57743756 10.30872292 -6.31969795 10.3777502 -10.0625 10.45996094 Z " fill="#000000" transform="translate(645.0625,519.5400390625)"/>
<path d="M0 0 C0.69802734 0.00386719 1.39605469 0.00773438 2.11523438 0.01171875 C2.80939453 0.00785156 3.50355469 0.00398437 4.21875 0 C9.42445449 0.01007881 9.42445449 0.01007881 11.67773438 1.13671875 C11.67773438 20.60671875 11.67773438 40.07671875 11.67773438 60.13671875 C3.26273438 60.63171875 3.26273438 60.63171875 -5.32226562 61.13671875 C-7.0652595 59.39372487 -6.44985245 56.99265623 -6.45166016 54.62304688 C-6.45481232 53.44512573 -6.45796448 52.26720459 -6.46121216 51.05358887 C-6.45918793 49.77133423 -6.4571637 48.48907959 -6.45507812 47.16796875 C-6.45603485 45.86218872 -6.45699158 44.55640869 -6.45797729 43.21105957 C-6.45945396 40.44359153 -6.45730074 37.67615571 -6.45263672 34.90869141 C-6.44693943 31.35409226 -6.45021861 27.79956861 -6.45620918 24.24497223 C-6.46068309 20.86513161 -6.45755449 17.48531152 -6.45507812 14.10546875 C-6.45710236 12.82321411 -6.45912659 11.54095947 -6.46121216 10.21984863 C-6.45806 9.04192749 -6.45490784 7.86400635 -6.45166016 6.65039062 C-6.45086456 5.60749878 -6.45006897 4.56460693 -6.44924927 3.4901123 C-6.21040123 -0.93646917 -3.88330654 0.00753309 0 0 Z " fill="#000000" transform="translate(663.322265625,718.86328125)"/>
<path d="M0 0 C38.94 0 77.88 0 118 0 C116.07775454 3.84449092 113.83715144 7.24912842 111.375 10.75 C110.95476562 11.35199219 110.53453125 11.95398438 110.1015625 12.57421875 C109.07006863 14.05113043 108.03535421 15.52579194 107 17 C106.44304443 16.69956787 105.88608887 16.39913574 105.31225586 16.08959961 C95.68077991 11.55097885 84.06524055 10.80661272 73.62133789 9.32006836 C70.96581941 8.9415368 68.31198491 8.55261023 65.65820312 8.16210938 C48.93574144 5.72686724 32.34386031 3.80522455 15.4375 3.4375 C12.91526321 3.37783964 10.39311508 3.31425649 7.87109375 3.24609375 C6.78755615 3.22216553 5.70401855 3.1982373 4.58764648 3.17358398 C2 3 2 3 0 2 C0 1.34 0 0.68 0 0 Z " fill="#000000" transform="translate(816,216)"/>
<path d="M0 0 C33.33 0 66.66 0 101 0 C101 0.66 101 1.32 101 2 C98.47566516 3.26216742 96.7293002 3.1261414 93.90234375 3.140625 C65.05242243 3.56238256 36.49224736 7.65731546 8 12 C6.66382103 10.18959679 5.33112616 8.3766216 4 6.5625 C3.2575 5.55316406 2.515 4.54382813 1.75 3.50390625 C0 1 0 1 0 0 Z " fill="#000000" transform="translate(173,216)"/>
<path d="M0 0 C8.58 0 17.16 0 26 0 C25.23618699 3.81906504 24.27646423 7.26012776 23.03173828 10.9284668 C18.83802111 23.38257566 16.355851 36.09025274 14 49 C13.34 49 12.68 49 12 49 C11.87471924 48.32646484 11.74943848 47.65292969 11.62036133 46.95898438 C9.35527712 34.90318925 7.05846937 23.0322957 3.11328125 11.40234375 C1.8880274 7.65779601 0.95556835 3.8222734 0 0 Z " fill="#000000" transform="translate(532,216)"/>
<path d="M0 0 C0.66 0 1.32 0 2 0 C3.50752893 4.26821354 5.00472959 8.53997809 6.5 12.8125 C6.92925781 14.02744141 7.35851562 15.24238281 7.80078125 16.49414062 C8.20683594 17.65751953 8.61289062 18.82089844 9.03125 20.01953125 C9.40830078 21.09307861 9.78535156 22.16662598 10.17382812 23.27270508 C11 26 11 26 11 29 C5.39 28.67 -0.22 28.34 -6 28 C-4.875 19 -4.875 19 -3.80859375 14.84375 C-3.58623047 13.9671875 -3.36386719 13.090625 -3.13476562 12.1875 C-2.90466797 11.300625 -2.67457031 10.41375 -2.4375 9.5 C-2.20353516 8.5821875 -1.96957031 7.664375 -1.72851562 6.71875 C-1.15666285 4.47802077 -0.58041707 2.23852312 0 0 Z " fill="#000000" transform="translate(868,552)"/>
<path d="M0 0 C0.66 0 1.32 0 2 0 C3.33834986 3.78991493 4.66982663 7.58220836 6 11.375 C6.3815625 12.45523438 6.763125 13.53546875 7.15625 14.6484375 C7.5171875 15.6796875 7.878125 16.7109375 8.25 17.7734375 C8.58515625 18.72653809 8.9203125 19.67963867 9.265625 20.66162109 C10 23 10 23 10 25 C4.06 25 -1.88 25 -8 25 C-5.80536765 16.45248454 -3.05452766 8.27016382 0 0 Z " fill="#000000" transform="translate(433,551)"/>
<path d="M0 0 C3.3 0 6.6 0 10 0 C10 0.66 10 1.32 10 2 C6.7 2 3.4 2 0 2 C0 1.34 0 0.68 0 0 Z " fill="#000000" transform="translate(648,542)"/>
<path d="M0 0 C3 1 3 1 4.1875 3.0625 C4.455625 3.701875 4.72375 4.34125 5 5 C4.01 5 3.02 5 2 5 C1.34 3.35 0.68 1.7 0 0 Z " fill="#000000" transform="translate(522,598)"/>
<path d="M0 0 C0.33 0.66 0.66 1.32 1 2 C0.34 1.67 -0.32 1.34 -1 1 C-0.67 0.67 -0.34 0.34 0 0 Z " fill="#000000" transform="translate(514,698)"/>
<path d="" fill="#000000" transform="translate(0,0)"/>
<path d="" fill="#000000" transform="translate(0,0)"/>
<path d="" fill="#000000" transform="translate(0,0)"/>
<path d="" fill="#000000" transform="translate(0,0)"/>
<path d="" fill="#000000" transform="translate(0,0)"/>
<path d="" fill="#000000" transform="translate(0,0)"/>
<path d="" fill="#000000" transform="translate(0,0)"/>
<path d="" fill="#000000" transform="translate(0,0)"/>
<path d="" fill="#000000" transform="translate(0,0)"/>
<path d="" fill="#000000" transform="translate(0,0)"/>
<path d="" fill="#000000" transform="translate(0,0)"/>
<path d="" fill="#000000" transform="translate(0,0)"/>
<path d="" fill="#000000" transform="translate(0,0)"/>
<path d="" fill="#000000" transform="translate(0,0)"/>
<path d="" fill="#000000" transform="translate(0,0)"/>
<path d="" fill="#000000" transform="translate(0,0)"/>
</svg>
